<svg width="40" height="40" viewBox="0 0 40 40" fill="none" xmlns="http://www.w3.org/2000/svg">
<path d="M20 0C8.95599 0 0 8.95599 0 20C0 31.044 8.95599 40 20 40C31.044 40 40 31.044 40 20C40 8.95599 31.044 0 20 0ZM20.4239 31.6446C20.4236 31.6446 20.4242 31.6446 20.4239 31.6446H20.419C18.4155 31.6437 16.4468 31.1414 14.6985 30.188L8.35297 31.8521L10.0513 25.6509C9.0036 23.8364 8.45245 21.7776 8.45337 19.6686C8.45612 13.0707 13.826 7.70294 20.4239 7.70294C23.6258 7.70416 26.6315 8.9505 28.8913 11.2122C31.1514 13.4741 32.3953 16.4807 32.3941 19.678C32.3914 26.2762 27.0209 31.6446 20.4239 31.6446Z" fill="#032E4A"/>
<path d="M20.4279 9.72412C14.9399 9.72412 10.4767 14.1855 10.4743 19.6695C10.4737 21.5488 10.9998 23.3789 11.9956 24.9625L12.2321 25.3387L11.2269 29.0091L14.9924 28.0215L15.3559 28.237C16.8833 29.1434 18.6344 29.6228 20.4197 29.6234H20.4236C25.9073 29.6234 30.3705 25.1617 30.373 19.6774C30.3739 17.0197 29.34 14.5209 27.4616 12.641C25.5832 10.7611 23.0851 9.72504 20.4279 9.72412ZM26.28 23.9456C26.0306 24.6439 24.8359 25.2814 24.2612 25.3674C23.7458 25.4443 23.0939 25.4764 22.3774 25.249C21.9428 25.1111 21.3858 24.9271 20.672 24.6191C17.6719 23.324 15.7123 20.304 15.5628 20.1044C15.4133 19.9048 14.3415 18.483 14.3415 17.0111C14.3415 15.5396 15.1142 14.816 15.3882 14.5169C15.6626 14.2175 15.9867 14.1428 16.186 14.1428C16.3852 14.1428 16.5848 14.1446 16.7591 14.1531C16.9428 14.1623 17.1894 14.0833 17.432 14.6664C17.6813 15.2652 18.2795 16.7368 18.3542 16.8863C18.429 17.0361 18.4787 17.2107 18.3793 17.4103C18.2795 17.6099 17.948 18.0405 17.6316 18.4329C17.4988 18.5974 17.3258 18.7439 17.5004 19.0433C17.6746 19.3423 18.2752 20.3217 19.1642 21.1145C20.3067 22.1332 21.2705 22.4487 21.5696 22.5986C21.8683 22.7481 22.0429 22.7231 22.2175 22.5238C22.3917 22.3242 22.9651 21.6507 23.1644 21.3513C23.3637 21.0519 23.5633 21.102 23.8373 21.2018C24.1117 21.3013 25.582 22.0248 25.8811 22.1744C26.1802 22.3242 26.3794 22.399 26.4542 22.5238C26.5293 22.6486 26.5293 23.2471 26.28 23.9456Z" fill="#032E4A"/>
</svg>
