<svg width="40" height="40" viewBox="0 0 40 40" fill="none" xmlns="http://www.w3.org/2000/svg">
<g clip-path="url(#clip0)">
<path d="M17.5088 16.2532L24.0146 20.0001L17.5088 23.7471V16.2532Z" fill="#032E4A"/>
<path d="M20 40C8.95599 40 0 31.044 0 20C0 8.95599 8.95599 0 20 0C31.044 0 40 8.95599 40 20C40 31.044 31.044 40 20 40ZM32.4969 19.9796C32.4969 19.9796 32.4969 15.9235 31.9824 13.9676C31.694 12.897 30.8499 12.0529 29.7794 11.7648C27.8235 11.25 20 11.25 20 11.25C20 11.25 12.197 11.25 10.2206 11.7853C9.15009 12.0734 8.30597 12.9178 8.01758 13.9883C7.50275 15.9235 7.50275 20 7.50275 20C7.50275 20 7.50275 24.0558 8.01758 26.0117C8.30566 27.0822 9.17053 27.9471 10.2206 28.2352C12.1765 28.75 20 28.75 20 28.75C20 28.75 27.8235 28.75 29.7794 28.2147C30.8499 27.9266 31.694 27.0822 31.9824 26.0117C32.5177 24.0558 32.4969 19.9796 32.4969 19.9796Z" fill="#032E4A"/>
</g>
<defs>
<clipPath id="clip0">
<rect width="40" height="40" fill="white" transform="matrix(1 0 0 -1 0 40)"/>
</clipPath>
</defs>
</svg>
