<svg width="31" height="31" viewBox="0 0 31 31" fill="none" xmlns="http://www.w3.org/2000/svg">
<circle cx="15.5" cy="15.5" r="15.5" fill="#032E4A"/>
<path d="M23.0971 21.7016L19.6182 18.4499C19.4537 18.2963 19.2376 18.2143 19.0155 18.2214C18.7934 18.2284 18.5826 18.3239 18.4277 18.4877L16.3798 20.6529C15.8868 20.5562 14.8958 20.2385 13.8757 19.1925C12.8556 18.1429 12.5466 17.1214 12.455 16.6182L14.5595 14.5119C14.719 14.3528 14.8121 14.1361 14.8189 13.9077C14.8258 13.6793 14.7459 13.4571 14.5963 13.2881L11.434 9.71262C11.2843 9.54313 11.0762 9.44033 10.8539 9.42603C10.6317 9.41174 10.4127 9.48709 10.2436 9.63608L8.3865 11.2734C8.23854 11.426 8.15023 11.6292 8.13831 11.8444C8.12548 12.0643 7.88071 17.2745 11.8106 21.3163C15.239 24.8399 19.5335 25.0977 20.7162 25.0977C20.8891 25.0977 20.9952 25.0924 21.0234 25.0906C21.2327 25.0786 21.4302 24.9874 21.578 24.8346L23.1698 22.9246C23.3153 22.7513 23.3891 22.5264 23.3755 22.2979C23.362 22.0694 23.262 21.8554 23.0971 21.7016Z" fill="white"/>
</svg>
