<svg width="172" height="173" viewBox="0 0 172 173" fill="none" xmlns="http://www.w3.org/2000/svg">
<g clip-path="url(#clip0)">
<path d="M58.276 86.6607C59.117 86.3877 60.9104 85.8986 61.7514 85.6256C63.8539 84.9431 65.229 84.3107 67.6679 83.519C70.4432 82.6181 73.128 82.5838 75.3017 83.5526C77.8938 84.6646 79.6384 86.889 80.5945 89.8344C82.1516 94.6312 80.4755 98.059 78.8101 100.088C77.2582 101.894 75.2628 103.193 72.6557 104.039C70.8055 104.64 69.9372 104.829 67.1346 105.645C66.7982 105.755 65.1162 106.301 64.4434 106.519C64.3593 106.546 64.1954 106.041 64.2795 106.014C64.9249 105.712 65.4022 105.464 65.8795 105.216C66.3295 104.884 66.7227 104.663 66.4538 103.262C65.8276 101.046 64.8169 97.9327 63.97 95.3239C63.451 93.725 62.0851 89.5173 61.6458 88.4505C61.1247 87.1314 60.9313 86.822 60.0356 86.9267C59.5878 86.9791 59.14 87.0314 58.4399 87.1657C58.2444 87.1361 58.1919 86.688 58.276 86.6607ZM69.5842 103.455C70.2822 103.6 71.7938 103.389 73.7281 102.761C75.4942 102.188 77.2352 101.25 78.2846 99.3283C79.3908 97.2949 79.7443 94.9475 78.515 91.1606C77.4496 87.8785 75.5663 85.5132 72.3582 84.5081C70.4892 83.9054 68.166 84.1945 65.3907 85.0954C64.7179 85.3138 63.9043 85.6709 63.5952 85.8643C63.4543 86.003 63.2293 86.1691 63.3932 86.674C63.555 87.4587 65.0301 92.0031 65.9316 94.7802C66.8877 97.7256 68.0624 101.344 68.4743 102.327C68.6655 102.916 68.9703 103.282 69.5842 103.455Z" fill="#1C2953"/>
<path d="M93.0045 79.6665C93.5235 81.2654 93.0377 82.6325 90.6362 85.8306C90.5521 85.8579 90.6067 86.0262 90.6908 85.9989C91.7209 86.5947 96.1252 88.4209 98.7467 89.3373C98.8581 89.3942 98.8581 89.3942 98.9149 89.2827C99.2304 88.2501 99.5818 86.1825 99.5379 84.6154C99.6263 84.0285 99.3783 83.5509 98.9032 83.5191C98.5963 83.4327 97.9802 83.5396 97.2801 83.6739C97.1119 83.7285 97.0594 83.2804 97.1162 83.169C97.5367 83.0325 98.4891 82.8163 99.8347 82.3795C101.349 81.8881 102.246 81.5037 102.583 81.3945C102.667 81.3672 102.803 81.7879 102.747 81.8994C102.438 82.0927 101.96 82.3407 101.735 82.5067C101.033 82.9208 100.917 83.4234 100.772 84.1217C100.28 86.328 100.153 88.2295 99.6402 89.5124L99.6948 89.6807C101.898 90.4539 105.049 91.5704 105.857 92.0526C106.048 92.6417 105.45 93.9518 105.28 94.2862C105.196 94.3135 105.055 94.4522 104.944 94.3954C104.666 94.1134 104.137 93.9132 103.802 93.7427C102.408 93.1719 100.708 92.5147 99.007 91.8574C99.007 91.8574 98.9229 91.8847 98.8388 91.912C97.724 95.0646 95.697 96.8389 93.3422 97.6033C89.81 98.7499 86.8017 97.2148 85.791 94.101C85.2173 92.3338 85.9282 90.8007 88.4432 87.3797C88.5273 87.3524 88.4999 87.2682 88.3885 87.2114C86.8855 86.3039 85.7188 85.2873 85.0905 83.3518C84.2436 80.743 85.6905 78.0407 88.0453 77.2763C90.2319 76.5665 92.3215 77.5626 93.0045 79.6665ZM89.0276 87.7481C88.0371 89.2789 87.0466 90.8097 87.7023 92.8295C88.6311 95.6907 91.364 96.664 93.9711 95.8177C95.8213 95.2171 97.4257 93.8591 98.1408 91.7665C98.1976 91.6551 98.1703 91.5709 98.0862 91.5982C95.1031 90.4271 91.2286 88.8011 89.1958 87.6935C89.1958 87.6935 89.0844 87.6367 89.0276 87.7481ZM86.3311 82.0188C86.8228 83.5336 88.1829 84.8595 89.8268 85.6282C89.8268 85.6282 89.9382 85.6851 89.995 85.5736C91.4081 83.6265 91.9256 81.7841 91.4339 80.2694C91.0241 79.007 89.6936 77.4855 87.8434 78.0861C86.5818 78.4956 85.6755 79.9991 86.3311 82.0188Z" fill="#1C2953"/>
<path d="M101.924 72.492C103.27 72.0552 104.054 71.8936 105.399 71.4568C106.913 70.9654 107.222 70.7721 109.745 69.9531C111.511 69.3798 115.18 68.654 116.437 72.5251C117.038 74.3765 116.295 76.3849 114.634 77.8544L114.662 77.9385C117.376 77.7086 119.913 78.6524 120.815 81.4295C121.662 84.0383 120.776 86.4652 118.665 88.2668C117.426 89.32 115.772 89.9501 114.342 90.4142C112.912 90.8783 110.167 91.5836 108.091 92.3503C107.98 92.2934 107.871 91.9568 107.927 91.8454C108.489 91.5701 109.246 91.3244 109.696 90.9923C110.314 90.6056 110.373 90.2144 110.02 88.8406C109.749 87.7193 109.093 85.6996 107.673 81.3235C106.061 76.3584 105.542 74.7594 105.075 73.6085C104.718 72.7943 104.441 72.5123 103.881 72.5078C103.406 72.476 102.454 72.6921 101.949 72.8559C101.976 72.9401 101.84 72.5193 101.924 72.492ZM107.159 71.7228C107.018 71.8616 107.016 72.1414 107.071 72.3097C107.207 72.7304 108.462 76.8813 109.281 79.406C109.309 79.4901 109.42 79.547 109.504 79.5197C109.756 79.4378 110.12 79.4127 111.129 79.0851C113.316 78.3753 113.85 78.0159 114.161 77.5428C114.952 76.542 114.99 75.2273 114.553 73.8808C113.624 71.0195 111.646 70.0803 108.282 71.1723C107.72 71.4476 107.3 71.5841 107.159 71.7228ZM118.817 83.0081C117.697 79.5578 114.712 78.6664 111.096 79.8403C110.17 80.1406 109.75 80.2771 109.693 80.3885C109.609 80.4158 109.552 80.5273 109.58 80.6114C110.235 82.6312 111.847 87.5963 112.425 88.804C112.534 89.1406 112.896 89.3954 113.203 89.4818C113.928 89.7114 115.217 89.3861 115.89 89.1677C119.058 88.0461 119.828 86.1219 118.817 83.0081Z" fill="#1C2953"/>
<path d="M101.143 24.839C123.705 29.0498 143.24 45.1269 150.835 68.522C161.871 102.521 143.303 138.966 109.327 149.996C85.9469 157.585 61.4445 151.12 44.7877 135.318" stroke="#1C2953" stroke-miterlimit="10"/>
<path d="M30.1025 121.294C29.5957 121.738 29.2299 122.043 29.0595 122.377C28.946 122.6 28.887 122.991 28.9122 123.355C28.992 123.887 29.2379 124.645 29.7634 125.405C30.4822 126.473 31.3168 127.04 32.4899 127.217C33.5516 127.338 34.7563 127.04 36.0767 126.239C37.313 125.465 38.1878 124.437 38.5328 123.209C38.8778 121.981 38.7476 120.721 37.89 119.511C37.476 118.808 36.9484 118.328 36.3618 118.239C35.9435 118.096 35.1887 118.062 34.1543 118.026C34.127 117.942 34.127 117.942 34.0724 117.773C34.0177 117.605 34.1018 117.578 34.0745 117.493C34.4109 117.384 34.9428 117.305 35.5862 117.282C36.2295 117.259 36.6205 117.318 36.8161 117.348C37.5665 117.941 38.1488 118.589 38.5902 119.376C39.5843 121.007 39.992 122.549 39.7289 124.03C39.4386 125.427 38.5343 126.65 36.9889 127.617C36.1458 128.17 35.2207 128.47 34.2136 128.518C33.2066 128.566 32.3131 128.391 31.3944 127.852C30.3917 127.34 29.5592 126.494 28.7858 125.257C28.5945 124.668 28.2919 124.022 27.9619 123.292C27.632 122.562 27.4113 122.168 27.384 122.084C28.2818 121.699 29.0681 121.258 29.7704 120.844C29.7704 120.844 29.8818 120.901 30.0205 121.042C30.1593 121.183 30.1866 121.267 30.1025 121.294Z" fill="#1C2953"/>
<path d="M32.8271 108.782C32.9112 108.755 32.9953 108.728 33.0794 108.7C33.1635 108.673 33.2476 108.646 33.359 108.703C33.3863 108.787 33.4956 109.123 33.7709 109.685C33.9621 110.274 34.2102 110.752 34.3194 111.088C34.4833 111.593 34.7313 112.071 34.9793 112.549C35.2547 113.11 35.3366 113.363 35.3639 113.447C35.3639 113.447 35.3072 113.558 35.139 113.613C35.0549 113.64 34.9708 113.668 34.8867 113.695C34.6113 113.133 34.3906 112.74 34.2519 112.599C34.0859 112.374 33.9471 112.233 33.7516 112.203C33.5561 112.173 33.2197 112.283 32.7992 112.419C31.6218 112.801 29.1534 113.789 25.31 115.408C25.2259 115.436 25.1691 115.547 25.2805 115.604C25.4171 116.025 25.7471 116.755 26.159 117.737C26.325 117.963 26.5752 118.16 26.8821 118.247C27.0776 118.276 27.721 118.254 28.6439 118.233C28.6439 118.233 28.6712 118.317 28.7259 118.486C28.7805 118.654 28.7237 118.765 28.7237 118.765C27.6872 119.009 26.8189 119.198 25.8938 119.498C25.8938 119.498 25.8938 119.498 25.7824 119.441C25.7551 119.357 25.7551 119.357 25.7551 119.357C25.7299 118.993 25.5933 118.572 25.4021 117.983L22.9874 111.976C22.6847 111.33 22.4094 110.769 22.1319 110.487C22.1046 110.402 22.0773 110.318 22.1614 110.291C22.6092 110.239 23.5616 110.022 25.0754 109.531C25.1595 109.504 25.1869 109.588 25.2415 109.756C25.2961 109.925 25.3234 110.009 25.3234 110.009C24.678 110.311 24.228 110.643 24.003 110.809C23.7213 111.087 23.6918 111.283 23.8011 111.619C24.213 112.602 24.4862 113.443 24.7342 113.921C24.5933 114.06 24.6774 114.032 24.6774 114.032C29.2777 112.167 31.8029 111.068 32.3916 110.877C32.6165 110.711 32.8688 110.629 32.9256 110.518C32.9824 110.406 33.0119 110.211 33.0413 110.015C33.0435 109.735 32.9342 109.399 32.8271 108.782Z" fill="#1C2953"/>
<path d="M31.3252 100.433C31.6761 102.086 31.3857 103.483 30.5656 104.679C29.6614 105.903 28.425 106.676 26.7725 107.027C25.5405 107.241 24.3947 107.147 23.2237 106.69C22.4438 106.292 21.7774 105.671 21.1678 104.939C20.5583 104.207 20.201 103.393 19.9846 102.44C19.7955 101.571 19.8293 100.816 19.9471 100.033C20.065 99.2507 20.433 98.6661 20.801 98.0815C21.1963 97.5811 21.7031 97.1375 22.3213 96.7508C22.9394 96.3641 23.5281 96.173 24.3123 96.0115C25.7126 95.743 26.9425 95.8088 28.1407 96.3501C29.0048 96.7208 29.6438 97.2575 30.2534 97.9899C30.7789 98.7495 31.1361 99.5638 31.3252 100.433ZM30.4066 99.8936C30.2448 99.1089 29.8854 98.5744 29.3851 98.1787C28.3845 97.3873 27.0158 97.1804 25.1951 97.5854C24.2427 97.8015 23.3449 98.186 22.6426 98.6C21.8836 99.1254 21.3474 99.7646 21.034 100.517C20.7206 101.27 20.6028 102.053 20.7918 102.922C20.899 103.538 21.147 104.016 21.4518 104.382C21.8953 104.889 22.5638 105.23 23.3732 105.433C24.2394 105.523 25.0782 105.53 25.9465 105.341C26.8989 105.125 27.7967 104.741 28.5558 104.215C29.3148 103.69 29.9078 102.939 30.2212 102.186C30.5619 101.518 30.5956 100.762 30.4066 99.8936Z" fill="#1C2953"/>
<path d="M19.269 93.6486C19.269 93.6486 19.1849 93.6759 18.9893 93.6463C18.8211 93.7009 18.7938 93.6168 18.7938 93.6168C18.7665 93.5326 18.8254 93.1414 18.8865 92.4704C18.9476 91.7994 18.9246 91.1558 18.9583 90.4006C19.2379 90.4029 19.5743 90.2937 19.9675 90.073C23.8951 88.426 26.252 87.3818 27.1225 86.9132C27.1225 86.9132 27.1225 86.9132 27.0952 86.8291C26.7609 86.6585 25.7308 86.0627 23.9481 85.153C22.1655 84.2433 20.8284 83.561 20.0758 83.2472C19.6575 83.1039 19.3232 82.9334 19.1277 82.9038C19.1047 82.2601 19.1658 81.5892 19.1427 80.9455C19.1197 80.3018 19.0945 79.9379 19.124 79.7423C19.124 79.7423 19.2081 79.715 19.3763 79.6604C19.4604 79.6331 19.5718 79.6899 19.6832 79.7468C19.8177 80.4473 19.8429 80.8112 19.8702 80.8954C19.9794 81.232 20.2023 81.3457 20.5933 81.4048C21.1525 81.4093 22.4665 81.4479 24.508 81.4364C26.5494 81.4249 27.8634 81.4634 28.4794 81.3565C28.8431 81.3315 29.0113 81.2769 29.1795 81.2223C29.3477 81.1677 29.3772 80.972 29.4908 80.7491C29.5475 80.6377 29.6065 80.2465 29.6381 79.7711C29.7222 79.7438 29.8063 79.7165 29.8904 79.6892C29.9745 79.6619 30.0859 79.7187 30.1973 79.7756C30.2246 79.8598 30.1384 80.1668 30.1341 80.7263C30.1298 81.2859 30.0982 81.7612 30.1234 82.1252C30.1464 82.7689 30.1126 83.524 30.1335 84.4474C30.1335 84.4474 30.0494 84.4747 29.8812 84.5293C29.7971 84.5566 29.6857 84.4998 29.6016 84.5271C29.5491 84.079 29.4398 83.7424 29.3852 83.5741C29.2759 83.2375 29.0531 83.1238 28.662 83.0646C27.0684 83.0238 24.5519 83.0035 21.392 83.006C21.392 83.006 21.3079 83.0333 21.4193 83.0902C21.6421 83.2039 22.3106 83.545 23.6203 84.1431C24.93 84.7412 26.1829 85.4508 27.4653 85.9647C28.6909 86.5901 29.5549 86.9608 30.0847 87.1609C30.0847 87.1609 30.112 87.2451 30.0826 87.4407C30.1372 87.609 30.0531 87.6363 30.0804 87.7205C29.6599 87.857 28.8189 88.13 27.6688 88.5963C26.5187 89.0627 25.1164 89.6109 23.714 90.1592C22.2275 90.7347 21.4138 91.0919 21.2456 91.1465C21.1615 91.1738 21.2729 91.2306 21.2729 91.2306C24.4307 91.5079 26.7223 91.6943 28.2045 91.6782C28.5682 91.6532 28.8478 91.6554 29.016 91.6008C29.1842 91.5462 29.3251 91.4075 29.4113 91.1004C29.4408 90.9048 29.527 90.5978 29.6154 90.0109C29.6995 89.9836 29.6995 89.9836 29.895 90.0132C30.0065 90.07 30.0906 90.0427 30.1179 90.1269C30.1452 90.211 30.1431 90.4908 30.1114 90.9662C30.0798 91.4416 30.0209 91.8328 30.0461 92.1967C30.0712 92.5606 30.0396 93.036 30.008 93.5114C29.9764 93.9867 29.9743 94.2665 30.0016 94.3507C29.9175 94.378 29.9175 94.378 29.7493 94.4326C29.6379 94.3757 29.5538 94.403 29.4697 94.4303C29.3899 93.8981 29.392 93.6183 29.3647 93.5342C29.2827 93.2817 29.2008 93.0292 29.0053 92.9997C28.8665 92.8587 28.5596 92.7722 28.0845 92.7404C26.6044 92.4767 24.1173 92.2608 20.5685 91.9244C20.2048 91.9495 19.8684 92.0587 19.7822 92.3657C19.4163 92.6705 19.3574 93.0618 19.269 93.6486Z" fill="#1C2953"/>
<path d="M29.5225 80.2738C29.5835 79.6028 29.5311 79.1547 29.4491 78.9022C29.3671 78.6498 28.9783 78.3109 28.3665 77.8583C26.2812 76.3027 24.0277 74.8017 21.4672 73.2143C21.1056 72.9595 20.7714 72.789 20.5485 72.6753L20.578 72.4797C20.6348 72.3682 20.6916 72.2567 20.6369 72.0884C20.6937 71.977 20.6664 71.8928 20.7232 71.7814C20.6959 71.6972 20.7527 71.5858 20.7527 71.5858C20.7527 71.5858 20.7253 71.5016 20.8094 71.4743C21.1732 71.4493 21.5369 71.4242 21.7324 71.4538C26.4061 70.9599 29.1771 70.6185 30.2409 70.4592C30.857 70.3523 31.2775 70.2158 31.4183 70.077C31.5592 69.9383 31.8137 69.5766 31.9862 68.9625C32.0703 68.9352 32.0703 68.9352 32.2658 68.9647C32.3772 69.0216 32.4886 69.0784 32.4886 69.0784C32.2299 69.9996 32.0574 70.6137 31.9417 71.1164C31.7397 71.9262 31.5945 72.6244 31.4767 73.4069C31.4767 73.4069 31.3926 73.4342 31.1971 73.4046C31.0856 73.3478 31.0015 73.3751 30.9742 73.2909C31.0058 72.8155 31.008 72.5358 31.0374 72.3402C30.9828 72.1719 30.8441 72.0308 30.6759 72.0855C29.7529 72.106 28.7732 72.238 27.5411 72.4519C27.457 72.4792 27.3729 72.5065 27.4003 72.5906L26.9963 74.2101L26.6219 75.634C26.6492 75.7181 26.6765 75.8023 26.7879 75.8591C28.2342 76.878 29.1256 77.3328 29.3484 77.4466C29.5439 77.4761 29.6553 77.533 29.7121 77.4215C29.7962 77.3942 29.9371 77.2555 30.0507 77.0325C30.1642 76.8096 30.2778 76.5867 30.3641 76.2797C30.3641 76.2797 30.4482 76.2524 30.6437 76.2819C30.7551 76.3388 30.8665 76.3956 30.8665 76.3956C30.8938 76.4798 30.8076 76.7868 30.6078 77.3168C30.4921 77.8195 30.349 78.238 30.2901 78.6292C30.2312 79.0205 30.1722 79.4117 30.0292 79.8302C29.9703 80.2214 29.9408 80.417 29.884 80.5285C29.7999 80.5558 29.7999 80.5558 29.6044 80.5262C29.6339 80.3306 29.5225 80.2738 29.5225 80.2738ZM22.4764 72.8867C22.4196 72.9981 22.4196 72.9981 22.4764 72.8867C22.6151 73.0277 23.1155 73.4234 24.0341 73.9624C24.9528 74.5014 25.5645 74.954 25.8988 75.1245C25.9829 75.0972 25.9829 75.0972 26.067 75.0699C26.1237 74.9585 26.2394 74.4558 26.3846 73.7575C26.5571 73.1434 26.616 72.7522 26.6455 72.5566C26.6455 72.5566 26.6455 72.5566 26.6182 72.4724C26.6182 72.4724 26.5341 72.4997 26.5068 72.4155C24.911 72.6545 23.5676 72.8115 22.4764 72.8867Z" fill="#1C2953"/>
<path d="M34.6297 63.36C34.7138 63.3327 34.7411 63.4169 34.9366 63.4464C35.0481 63.5033 35.1595 63.5601 35.0754 63.5874C35.0186 63.6989 34.8482 64.0333 34.6484 64.5632C34.3645 65.1205 34.2215 65.539 34.0785 65.9575C33.8513 66.4034 33.6515 66.9333 33.4517 67.4633C33.2519 67.9933 33.0816 68.3277 33.1089 68.4118C33.0248 68.4391 32.9134 68.3823 32.8019 68.3254C32.6905 68.2685 32.5791 68.2117 32.5791 68.2117C32.7516 67.5976 32.8946 67.179 32.9241 66.9834C33.0103 66.6764 32.9557 66.5081 32.817 66.367C32.6782 66.226 32.4281 66.0282 32.0097 65.8849C30.9229 65.4005 28.4422 64.3453 24.5951 62.8035C24.4836 62.7466 24.3995 62.7739 24.4269 62.8581C24.1997 63.3039 23.9431 63.9453 23.5435 65.0053C23.4573 65.3123 23.5392 65.5648 23.7326 65.8741C23.8986 66.0993 24.3149 66.5223 24.9812 67.1432C24.9812 67.1432 24.9244 67.2547 24.8677 67.3661C24.8109 67.4776 24.7541 67.589 24.6427 67.5322C23.8081 66.9659 22.9168 66.511 22.1368 66.1131C22.1368 66.1131 22.1368 66.1131 22.1095 66.0289C22.0822 65.9447 22.0822 65.9447 22.1663 65.9174C22.4481 65.6399 22.7025 65.2783 22.9864 64.721L25.4093 58.7252C25.6659 58.0838 25.8384 57.4697 25.7859 57.0216C25.8427 56.9101 25.8427 56.9101 25.9268 56.8828C26.2884 57.1376 27.1229 57.7038 28.5441 58.3588C28.5714 58.443 28.5987 58.5271 28.5419 58.6386C28.4851 58.75 28.4284 58.8615 28.3443 58.8888C27.619 58.6591 27.1165 58.5431 26.7528 58.5682C26.3891 58.5932 26.1368 58.6751 26.0505 58.9822C25.6236 59.958 25.3102 60.7109 25.1104 61.2408C25.1377 61.325 25.1377 61.325 25.2491 61.3819C29.8489 63.2375 32.4136 64.2654 32.9434 64.4655C33.2503 64.552 33.4459 64.5815 33.6141 64.5269C33.7823 64.4723 33.9505 64.4177 34.064 64.1948C34.1754 64.2517 34.3458 63.9173 34.6297 63.36Z" fill="#1C2953"/>
<path d="M39.3255 56.3474C38.4759 57.7394 37.2669 58.597 35.8666 58.8655C34.3823 59.1613 32.959 58.7861 31.456 57.8787C30.3986 57.1987 29.6502 56.3253 29.1837 55.1744C28.8537 54.4443 28.7488 53.5482 28.8961 52.5701C29.0434 51.5921 29.3295 50.755 29.811 49.9476C30.3199 49.2242 30.772 48.6124 31.4743 48.1984C32.1766 47.7843 32.738 47.5091 33.4381 47.3748C34.1382 47.2406 34.8089 47.302 35.4227 47.4748C36.1207 47.6203 36.7619 47.8773 37.3736 48.3299C38.5698 49.1509 39.4295 50.0811 39.896 51.2319C40.2533 52.0462 40.3583 52.9423 40.2677 53.8089C40.1204 54.787 39.8344 55.624 39.3255 56.3474ZM39.1091 55.3944C39.5339 54.6983 39.7064 54.0842 39.5992 53.4678C39.4691 52.2077 38.6388 51.0819 37.0243 50.1176C36.1898 49.5513 35.3531 49.2648 34.4596 49.0897C33.5661 48.9147 32.7545 48.9921 32.025 49.3219C31.2954 49.6518 30.6204 50.1499 30.1956 50.846C29.8844 51.3191 29.6846 51.8491 29.6803 52.4086C29.6465 53.1637 29.8651 53.837 30.3359 54.4283C30.8341 55.1038 31.389 55.6678 32.1963 56.15C33.0308 56.7163 33.8675 57.0028 34.8451 57.1506C35.8227 57.2983 36.6343 57.221 37.4479 56.8638C38.0934 56.5612 38.6002 56.1177 39.1091 55.3944Z" fill="#1C2953"/>
<path d="M41.742 51.191C42.1373 50.6905 42.2803 50.272 42.3666 49.965C42.3687 49.6852 42.3162 49.2371 42.0136 48.5912C41.0237 46.4009 39.8405 43.9013 38.4912 41.1765C38.2431 40.6989 38.0498 40.3896 37.911 40.2486C37.911 40.2486 37.9951 40.2213 38.0519 40.1098C38.1087 39.9984 38.2769 39.9438 38.3337 39.8323C38.3905 39.7209 38.4746 39.6936 38.5314 39.5821C38.5881 39.4707 38.5881 39.4707 38.6722 39.4434L38.7563 39.4161C39.0906 39.5866 39.4248 39.7572 39.6477 39.8709C43.4654 41.6083 46.1415 42.6931 47.4512 43.2912C48.0651 43.464 48.4835 43.6073 48.7358 43.5254C48.9881 43.4435 49.2971 43.2501 49.8312 42.8907C49.8312 42.8907 49.9426 42.9476 50.054 43.0044C50.1928 43.1454 50.1928 43.1454 50.2201 43.2296C49.5998 43.8961 49.093 44.3396 48.6704 44.7559C48.1069 45.3109 47.5706 45.9501 47.0912 46.4778C47.0912 46.4778 46.9798 46.421 46.8684 46.3641C46.757 46.3072 46.7296 46.2231 46.7023 46.1389C46.9841 45.8614 47.0703 45.5544 47.268 45.3042C47.2975 45.1085 47.2428 44.9402 47.1314 44.8834C46.0172 44.3148 43.5093 43.1755 39.6075 41.4653C39.6075 41.4653 39.5234 41.4926 39.5507 41.5768C41.3687 45.1726 42.5814 47.4766 43.0774 48.4319C43.2708 48.7412 43.4095 48.8822 43.521 48.9391C43.7165 48.9686 43.8847 48.914 44.1097 48.748C44.2779 48.6934 44.4755 48.4432 44.7846 48.2498C44.8687 48.2225 44.896 48.3067 45.0074 48.3635C45.1189 48.4204 45.1462 48.5045 45.1735 48.5887C45.0894 48.616 44.8917 48.8662 44.5532 49.2552C44.2146 49.6441 43.8488 49.9489 43.6511 50.1991C43.3693 50.4767 43.0876 50.7542 42.8331 51.1158C42.5514 51.3933 42.4378 51.6163 42.3537 51.6436C42.3537 51.6436 42.2423 51.5867 42.1309 51.5298C41.7693 51.2751 41.742 51.191 41.742 51.191Z" fill="#1C2953"/>
<path d="M54.5495 40.2428C53.1996 41.2392 51.8266 41.5918 50.4307 41.3008C48.9507 41.037 47.7272 40.1319 46.7309 38.7809C46.012 37.7119 45.6569 36.6179 45.6382 35.4147C45.6446 34.5754 45.8466 33.7656 46.3282 32.9582C46.7551 31.9824 47.3754 31.3159 48.1345 30.7904C48.8094 30.2923 49.539 29.9624 50.3232 29.8009C51.1074 29.6393 51.7508 29.6165 52.4487 29.762C52.9785 29.9622 53.6197 30.2191 54.2041 30.5876C54.7885 30.956 55.232 31.4632 55.7029 32.0545C56.5331 33.1803 56.9429 34.4427 56.9616 35.6459C56.9825 36.5693 56.7806 37.3791 56.299 38.1865C55.8447 39.0782 55.3085 39.7174 54.5495 40.2428ZM54.5854 39.2079C55.1762 38.7371 55.5716 38.2366 55.744 37.6225C56.089 36.3942 55.7361 35.0205 54.601 33.5285C54.0482 32.6847 53.3818 32.0638 52.5746 31.5816C51.7673 31.0995 51.0421 30.8698 50.2032 30.8631C49.3643 30.8563 48.6074 31.102 47.9325 31.6002C47.4825 31.9323 47.0599 32.3485 46.8601 32.8785C46.6308 33.6041 46.597 34.3592 46.7588 35.1439C46.9206 35.9286 47.2505 36.6587 47.776 37.4184C48.3288 38.2622 49.0793 38.8558 49.8865 39.3379C50.6937 39.82 51.5304 40.1066 52.4261 40.0019C53.2649 40.0086 53.9104 39.7061 54.5854 39.2079Z" fill="#1C2953"/>
<path d="M59.7283 35.8642C60.0374 35.6708 60.3465 35.4774 60.4874 35.3387C60.7124 35.1726 60.7691 35.0612 60.7986 34.8656C60.8554 34.7541 60.7734 34.5017 60.6642 34.165C60.5276 33.7443 59.9496 32.5365 58.9303 30.5419C58.0223 28.604 57.4717 27.4805 57.2783 27.1712C57.1123 26.946 57.0303 26.6935 56.9189 26.6367C56.8075 26.5798 56.696 26.523 56.5278 26.5776C56.2755 26.6595 55.9118 26.6845 55.6027 26.8779C55.6027 26.8779 55.4913 26.821 55.4367 26.6527C55.382 26.4844 55.3547 26.4002 55.3547 26.4002C55.4388 26.3729 55.6911 26.291 56.1684 26.0431C56.6457 25.7951 57.0662 25.6586 57.3753 25.4653L61.08 23.7045C61.6414 23.4293 62.2028 23.154 62.4277 22.988L62.5118 22.9607C62.5118 22.9607 62.6233 23.0175 62.5392 23.0448C62.6463 23.6612 62.9195 24.5028 63.4974 25.7105C63.5248 25.7946 63.4407 25.8219 63.2725 25.8765C63.1043 25.9311 63.0202 25.9584 63.0202 25.9584C62.6607 25.424 62.3286 24.9736 62.0511 24.6916C61.7737 24.4096 61.3826 24.3505 61.0736 24.5438C59.6985 25.1762 58.8007 25.5607 58.4916 25.7541C58.4075 25.7814 58.378 25.977 58.4327 26.1453C59.0107 27.353 59.6159 28.6449 60.2485 30.0209C60.4692 30.4144 60.7719 31.0603 61.1565 31.9587C61.5411 32.8571 61.7891 33.3348 61.9824 33.6441C62.1485 33.8692 62.3146 34.0944 62.426 34.1513C62.5374 34.2081 62.7329 34.2377 63.0125 34.2399C63.1807 34.1853 63.6012 34.0488 64.1058 33.885C64.1058 33.885 64.2172 33.9419 64.2719 34.1102C64.3265 34.2785 64.3265 34.2785 64.3538 34.3627C64.1856 34.4173 63.8766 34.6106 63.2879 34.8017C62.6992 34.9928 62.306 35.2135 61.9969 35.4068C61.6605 35.516 61.3514 35.7094 60.8741 35.9573C60.3968 36.2053 60.0877 36.3986 60.0036 36.4259C60.0036 36.4259 59.8922 36.3691 59.8376 36.2008C59.783 36.0325 59.6442 35.8915 59.7283 35.8642Z" fill="#1C2953"/>
<path d="M67.6444 31.8991C68.149 31.7353 68.3739 31.5692 68.5421 31.5146C68.7671 31.3486 68.908 31.2098 68.9375 31.0142C68.9669 30.8186 68.9691 30.5389 68.8325 30.1181C68.8052 30.0339 68.6413 29.529 68.4795 28.7443C68.2904 27.8754 68.0719 27.2022 67.908 26.6973C67.3091 24.5661 66.9835 23.2765 66.8742 22.9399C66.7923 22.6874 66.7376 22.5191 66.6262 22.4622C66.5148 22.4054 66.4034 22.3485 66.2078 22.319C66.0123 22.2894 65.6486 22.3145 65.1167 22.3941C65.0894 22.31 65.0621 22.2258 65.0347 22.1416C65.0074 22.0575 64.9801 21.9733 65.0369 21.8619C65.121 21.8346 65.3733 21.7527 65.9052 21.673C66.3257 21.5365 66.8576 21.4569 67.2781 21.3204C67.6145 21.2112 68.035 21.0747 68.4555 20.9382C68.876 20.8017 69.2124 20.6925 69.2965 20.6652C69.2965 20.6652 69.3238 20.7493 69.3785 20.9177C69.4331 21.086 69.4331 21.086 69.3763 21.1974C68.9831 21.4181 68.6467 21.5273 68.59 21.6387C68.4491 21.7775 68.365 21.8048 68.3355 22.0004C68.2787 22.1118 68.3334 22.2802 68.3312 22.5599C68.4405 22.8965 68.9552 25.055 70.0163 28.8966C70.0437 28.9807 70.1278 28.9534 70.1004 28.8693C70.4411 28.2006 71.1498 26.9472 72.1719 24.9411C73.194 22.9349 73.8459 21.793 74.0457 21.263C74.0457 21.263 74.1025 21.1516 74.0479 20.9833L73.9659 20.7308C73.884 20.4784 73.7452 20.3373 73.4656 20.3351C73.3542 20.2782 72.9905 20.3033 72.3745 20.4102C72.3745 20.4102 72.2631 20.3534 72.2925 20.1578C72.322 19.9622 72.2379 19.9895 72.2947 19.878C72.3788 19.8507 72.6311 19.7688 73.163 19.6892C73.6949 19.6095 74.1154 19.473 74.4518 19.3638C74.7882 19.2546 75.2087 19.1181 75.7133 18.9543C76.2179 18.7905 76.4702 18.7086 76.5543 18.6813C76.5543 18.6813 76.5816 18.7655 76.6363 18.9338C76.6909 19.1021 76.7182 19.1862 76.6341 19.2135C76.0727 19.4888 75.8204 19.5707 75.7363 19.598C75.5954 19.7367 75.4546 19.8755 75.4819 19.9597C75.5365 20.128 75.5071 20.3236 75.6163 20.6602C75.7529 21.081 76.0513 22.2864 76.5955 24.2493C77.2216 26.4646 77.5473 27.7542 77.6839 28.175C77.7658 28.4275 77.9046 28.5685 77.9319 28.6527C78.0433 28.7095 78.1547 28.7664 78.3502 28.7959C78.5458 28.8255 78.9936 28.7731 79.5255 28.6935C79.5255 28.6935 79.5528 28.7776 79.6075 28.9459C79.6621 29.1143 79.6053 29.2257 79.6053 29.2257C79.5212 29.253 79.2689 29.3349 78.737 29.4146C78.3165 29.5511 77.7846 29.6307 77.28 29.7945C76.6913 29.9856 75.9912 30.1198 75.0661 30.4201C75.0661 30.4201 74.9546 30.3633 74.9841 30.1677C74.9295 29.9994 74.9295 29.9994 74.9862 29.8879C75.4908 29.7241 75.7999 29.5308 75.9408 29.392C76.1658 29.226 76.1679 28.9462 76.1155 28.4981C75.9789 28.0773 75.4914 26.003 74.403 22.0773C74.3757 21.9931 74.3757 21.9931 74.2916 22.0204C74.2348 22.1319 73.6102 23.3579 72.361 25.8099C71.1118 28.2619 70.4872 29.4879 70.4031 29.5152C70.3463 29.6267 70.2895 29.7381 70.3168 29.8223C70.4261 30.1589 70.4807 30.3272 70.6195 30.4682C70.7582 30.6092 70.8696 30.6661 71.1492 30.6683C71.4289 30.6706 71.7926 30.6456 72.2404 30.5932C72.2677 30.6774 72.295 30.7615 72.3224 30.8457C72.377 31.014 72.2929 31.0413 72.3202 31.1254C72.2361 31.1527 71.8997 31.2619 71.3678 31.3416C70.8632 31.5054 70.4154 31.5577 70.1631 31.6396C69.4062 31.8853 68.622 32.0469 67.8651 32.2926C67.8651 32.2926 67.8377 32.2084 67.7831 32.0401C67.699 32.0674 67.6717 31.9833 67.6444 31.8991Z" fill="#1C2953"/>
<path d="M88.8345 18.1368C88.3299 18.3006 88.0503 18.2983 88.0503 18.2983C87.6298 18.4348 87.4595 18.7692 87.4847 19.1331C87.535 19.861 87.6084 21.2325 87.7321 23.3318C87.8874 24.9558 87.9902 26.1317 88.0679 26.9437C88.093 27.3077 88.1477 27.476 88.2864 27.617C88.4252 27.758 88.5366 27.8148 88.7321 27.8444C88.9276 27.8739 89.2072 27.8762 89.5983 27.9353C89.5983 27.9353 89.6256 28.0195 89.6802 28.1878C89.7349 28.3561 89.6508 28.3834 89.6781 28.4675C89.594 28.4948 89.3144 28.4926 88.671 28.5154C88.0277 28.5382 87.664 28.5632 87.3843 28.561C87.0206 28.586 86.5728 28.6383 86.0409 28.718C85.509 28.7976 85.2294 28.7954 85.1453 28.8227C85.1453 28.8227 85.0338 28.7658 85.0633 28.5702C85.0087 28.4019 85.0928 28.3746 85.0654 28.2905C85.5133 28.2381 85.8497 28.1289 85.9338 28.1016C86.102 28.047 86.2428 27.9083 86.2996 27.7968C86.3564 27.6853 86.3859 27.4897 86.388 27.21C86.3629 26.846 86.2873 25.7543 86.1615 23.9347C86.1342 23.8505 86.1342 23.8505 86.0501 23.8778C85.7704 23.8756 85.6022 23.9302 85.5181 23.9575C85.0703 24.0098 84.5636 24.4534 84.1661 25.2336C84.1093 25.345 83.7981 25.8182 83.3733 26.5142C82.9485 27.2102 82.5805 27.7948 82.2987 28.0723C82.0443 28.434 81.7625 28.7115 81.5375 28.8775C81.0603 29.1255 80.1919 29.3143 79.0167 29.4168C79.0167 29.4168 78.9053 29.3599 78.9347 29.1643C78.8801 28.996 78.9642 28.9687 78.9369 28.8845C79.4688 28.8049 79.8893 28.6684 80.0302 28.5296C80.1711 28.3909 80.4801 28.1975 80.7914 27.7244C80.989 27.4742 81.3003 27.0011 81.6683 26.4165C82.0363 25.8319 82.4043 25.2473 82.8269 24.8311C83.1382 24.358 83.504 24.0532 83.729 23.8871C83.729 23.8871 83.729 23.8871 83.7017 23.8029C83.6744 23.7188 83.7017 23.8029 83.6744 23.7188C82.8923 23.6006 82.3352 23.3163 81.7508 22.9479C81.1664 22.5794 80.9479 21.9062 80.8702 21.0942C80.7652 20.1981 81.1059 19.5293 81.7536 18.947C82.4012 18.3647 83.3263 18.0644 84.5015 17.962C84.6971 17.9915 85.0608 17.9665 85.5927 17.8868C86.1246 17.8072 86.5156 17.8663 86.8794 17.8412C87.0476 17.7866 87.4113 17.7616 87.8591 17.7092C88.3069 17.6569 88.6706 17.6319 88.7547 17.6046C88.7547 17.6046 88.7821 17.6887 88.8367 17.857C88.8913 18.0253 88.9186 18.1095 88.8345 18.1368ZM85.7271 18.5874C85.6157 18.5305 85.252 18.5555 84.6928 18.551C83.9653 18.6011 83.4039 18.8764 83.0654 19.2653C82.7269 19.6543 82.527 20.1843 82.5774 20.9121C82.7032 22.7317 83.9562 23.4413 86.2226 23.2637C86.3067 23.2364 86.3067 23.2364 86.2793 23.1523C86.2815 22.8725 86.229 22.4244 86.1787 21.6966C86.1283 20.9687 86.0485 20.4365 86.0528 19.877C85.973 19.3447 85.9478 18.9808 85.9773 18.7852C85.8659 18.7284 85.8386 18.6442 85.7271 18.5874Z" fill="#1C2953"/>
</g>
<defs>
<clipPath id="clip0">
<rect width="135.902" height="135.902" fill="white" transform="translate(0.111572 42.9375) rotate(-17.9841)"/>
</clipPath>
</defs>
</svg>
