<svg width="27" height="41" viewBox="0 0 27 41" fill="none" xmlns="http://www.w3.org/2000/svg">
<path d="M27 14.6541C27 12.8585 26.6508 11.0806 25.9724 9.42171C25.2939 7.76284 24.2995 6.25555 23.0459 4.9859C21.7924 3.71625 20.3041 2.70912 18.6662 2.02199C17.0283 1.33486 15.2728 0.981201 13.5 0.981201C11.7272 0.981201 9.97167 1.33486 8.33377 2.02199C6.69588 2.70912 5.20765 3.71625 3.95406 4.9859C2.70047 6.25555 1.70606 7.76284 1.02763 9.42171C0.349188 11.0806 -2.64174e-08 12.8585 0 14.6541C0 17.3633 0.790714 19.883 2.13107 22.0082H2.11564C6.66707 29.2255 13.5 40.0466 13.5 40.0466L24.8844 22.0082H24.8709C26.2602 19.8134 26.9991 17.2612 27 14.6541ZM13.5 20.5139C11.9655 20.5139 10.4939 19.8965 9.40888 18.7976C8.32385 17.6987 7.71429 16.2082 7.71429 14.6541C7.71429 13.1 8.32385 11.6095 9.40888 10.5106C10.4939 9.41166 11.9655 8.79429 13.5 8.79429C15.0345 8.79429 16.5061 9.41166 17.5911 10.5106C18.6762 11.6095 19.2857 13.1 19.2857 14.6541C19.2857 16.2082 18.6762 17.6987 17.5911 18.7976C16.5061 19.8965 15.0345 20.5139 13.5 20.5139Z" fill="#032E4A"/>
</svg>
