<svg width="87" height="83" viewBox="0 0 87 83" fill="none" xmlns="http://www.w3.org/2000/svg">
<path d="M61.8395 54.0494C60.7492 53.161 59.3251 52.7571 57.9302 52.9408L45.2029 54.6188C44.8459 54.6655 44.6639 54.4331 44.6018 54.3308C44.5398 54.2285 44.4175 53.959 44.6229 53.6646L46.3783 51.1504C46.7812 50.5734 46.6399 49.7788 46.0629 49.3759C45.4858 48.9728 44.6912 49.1142 44.2885 49.6913L42.5332 52.2057C41.8059 53.2475 41.7641 54.5692 42.4239 55.6548C43.0841 56.7405 44.2759 57.3116 45.5361 57.1457L58.2634 55.4677C58.975 55.3741 59.6731 55.5721 60.2293 56.0253C60.7854 56.4784 61.1205 57.1225 61.1723 57.838C61.2544 58.9731 60.5973 60.0136 59.5371 60.4268L35.4989 69.7976C32.3026 71.0436 28.8094 71.5194 25.3961 71.173L23.4668 70.9772C23.1905 70.9495 22.9106 71.0127 22.6727 71.1583L8.41732 79.8869C7.81697 80.2545 7.62818 81.039 7.9959 81.6394C8.23635 82.0321 8.65505 82.2484 9.08394 82.2484C9.31096 82.2484 9.5407 82.1879 9.74818 82.0606L23.6371 73.5565L25.1387 73.7089C28.9517 74.0955 32.854 73.5643 36.4243 72.1725L47.8395 67.7226L52.0337 81.3488C52.2023 81.8966 52.7066 82.2486 53.2512 82.2486C53.3755 82.2486 53.5019 82.2302 53.6266 82.1918C54.2994 81.9848 54.6769 81.2715 54.4698 80.5987L50.2206 66.7943L60.4627 62.8017C62.5708 61.9798 63.8777 59.9111 63.7144 57.6542C63.6132 56.2516 62.9296 54.9376 61.8395 54.0494Z" fill="#032E4A"/>
<path d="M11.7946 41.241L13.7239 39.3346C14.2245 38.8398 14.2294 38.033 13.7346 37.5324C13.2396 37.0316 12.4332 37.0269 11.9324 37.5217L10.0061 39.4252C8.21917 41.1794 6.84821 43.3595 6.04123 45.7298L5.18208 48.2532L0.501814 51.8227C-0.0579215 52.2495 -0.165655 53.0492 0.261199 53.6089C0.51218 53.9377 0.891624 54.1105 1.27566 54.1105C1.54516 54.1105 1.81687 54.0254 2.04746 53.8494L7.03631 50.0444C7.23768 49.8909 7.3884 49.6812 7.46996 49.4418L8.45401 46.551C9.13337 44.5558 10.2875 42.7206 11.7946 41.241Z" fill="#032E4A"/>
<path d="M78.5745 69.7485C78.3595 69.0781 77.6419 68.7087 76.9717 68.9238C76.3015 69.1386 75.9323 69.8562 76.1469 70.5264L79.62 81.3629C79.7935 81.9039 80.2943 82.2487 80.8334 82.2487C80.9624 82.2487 81.0934 82.229 81.2228 82.1875C81.8929 81.9728 82.2622 81.2552 82.0476 80.585L78.5745 69.7485Z" fill="#032E4A"/>
<path d="M72.0146 44.2128C73.9611 41.7696 75.4216 39.0194 76.3555 36.0385L79.8081 25.0177C80.0185 24.346 79.6446 23.6309 78.9729 23.4205C78.3019 23.2108 77.5861 23.584 77.3758 24.2557L73.9232 35.2766C73.084 37.9563 71.7709 40.4284 70.021 42.6247L69.2085 43.6448C68.6912 44.2937 68.4154 45.1121 68.4315 45.949V45.9491C68.4385 46.306 68.8572 47.7816 68.8572 47.7816C69.0304 48.3215 69.5303 48.6673 70.0703 48.6673C70.1906 48.6673 70.313 48.6501 70.4341 48.6141L70.4946 48.5969C70.8233 48.5031 71.1002 48.2815 71.2639 47.9814C71.4275 47.6814 71.4637 47.3282 71.3645 47.0013L70.9891 45.7639C71.0102 45.5688 71.0819 45.3838 71.202 45.2331L72.0146 44.2128Z" fill="#032E4A"/>
<path d="M2.49927 26.3933C2.49927 28.6467 4.3326 30.48 6.58598 30.48C8.83954 30.48 10.6729 28.6467 10.6729 26.3933C10.6729 24.1397 8.83954 22.3064 6.58598 22.3064C4.3326 22.3066 2.49927 24.1399 2.49927 26.3933ZM8.12381 26.3933C8.12381 27.2412 7.43374 27.9311 6.58581 27.9311C5.73788 27.9311 5.04799 27.2412 5.04799 26.3933C5.04799 25.5452 5.73788 24.8553 6.58581 24.8553C7.43374 24.8553 8.12381 25.5454 8.12381 26.3933Z" fill="#032E4A"/>
<path d="M82.2678 33.9878C79.6585 33.9878 77.5355 36.1107 77.5355 38.7201C77.5355 41.3294 79.6584 43.4523 82.2678 43.4523C84.8772 43.4523 87 41.3294 87 38.7201C87 36.1107 84.8772 33.9878 82.2678 33.9878ZM82.2678 40.9034C81.0638 40.9034 80.0844 39.924 80.0844 38.7201C80.0844 37.5161 81.0638 36.5367 82.2678 36.5367C83.4717 36.5367 84.4511 37.5161 84.4511 38.7201C84.4511 39.924 83.4717 40.9034 82.2678 40.9034Z" fill="#032E4A"/>
<path d="M8.0645 14.0717C11.158 14.0717 13.6749 11.5549 13.6749 8.46122C13.6749 5.36755 11.1582 2.85095 8.0645 2.85095C4.97083 2.85095 2.45422 5.36772 2.45422 8.46122C2.45422 11.5547 4.97099 14.0717 8.0645 14.0717ZM8.0645 5.39984C9.75271 5.39984 11.126 6.77318 11.126 8.46139C11.126 10.1496 9.75271 11.5229 8.0645 11.5229C6.37628 11.5229 5.00294 10.1496 5.00294 8.46139C5.00294 6.77318 6.37645 5.39984 8.0645 5.39984Z" fill="#032E4A"/>
<path d="M63.7552 26.2595L63.9385 25.997H67.7785C68.8931 25.997 69.8973 25.2931 70.2778 24.2455L72.5555 17.9734C73.5242 15.3051 75.7458 13.296 78.4983 12.5995C79.0621 12.4569 79.6377 12.624 80.0375 13.0466C80.4373 13.4694 80.5721 14.0531 80.3981 14.6082L79.0037 19.0594C78.7933 19.7311 79.1673 20.4462 79.8388 20.6565C80.5099 20.8669 81.2256 20.4931 81.436 19.8214L82.8304 15.3701C83.2843 13.9215 82.9325 12.398 81.8892 11.295C80.846 10.192 79.3444 9.75597 77.8728 10.1284C74.3006 11.0325 71.4171 13.6401 70.1595 17.1034L67.8818 23.3755C67.866 23.4189 67.8246 23.4481 67.7785 23.4481H65.718L66.2361 22.7058C66.976 21.6464 67.2334 20.3164 66.9425 19.0574C66.6516 17.7982 65.837 16.7161 64.7075 16.0884C64.2179 15.8164 63.6954 15.6447 63.1654 15.5659C63.7441 13.9608 63.3103 12.0853 61.947 10.9193C60.2367 9.45673 57.6868 9.59267 56.142 11.2284L55.3775 12.0377C55.1168 11.3166 54.6772 10.6685 54.0834 10.1456C54.0161 10.0863 53.9472 10.0301 53.8776 9.97551C53.9698 9.50431 54.0013 9.02138 53.9687 8.53097C53.7811 5.70714 51.5061 3.48281 48.6767 3.35656C47.5402 3.30609 46.4289 3.60108 45.4788 4.19565C44.4307 2.87193 42.8516 2.10013 41.1304 2.10013C39.1795 2.10013 37.4383 3.09351 36.4406 4.67518L33.7813 2.06274C32.8593 1.15704 31.5899 0.681926 30.3012 0.759412C29.0111 0.836728 27.8086 1.46019 27.0016 2.46955C26.6519 2.90694 26.3958 3.3936 26.2298 3.90304C24.7435 3.06548 22.8219 3.18137 21.4452 4.33193C19.7187 5.77494 19.4285 8.31177 20.7843 10.1075L21.455 10.9956C20.7004 11.1327 19.9888 11.4588 19.3743 11.9574C17.457 13.5137 17.0983 16.2932 18.558 18.2852L20.9932 21.6081C20.3847 21.7478 19.8103 22.0241 19.3062 22.4277C17.579 23.81 17.2176 26.3146 18.483 28.1292L19.6885 29.8575L15.8108 33.6892C15.3102 34.184 15.3053 34.9908 15.8001 35.4914C16.0494 35.7438 16.3778 35.8702 16.7066 35.8702C17.0302 35.8702 17.3541 35.7477 17.6023 35.5023L41.8122 11.5801C42.4385 10.9613 43.4434 10.9359 44.1002 11.522C44.4419 11.8269 44.6397 12.2469 44.6574 12.7045C44.6751 13.162 44.5104 13.596 44.1935 13.9263L33.0052 25.5178C32.5147 26.0225 32.5261 26.8293 33.0307 27.3198C33.2783 27.5606 33.5988 27.6804 33.9189 27.6804C34.2511 27.6804 34.583 27.5513 34.833 27.2944L49.5355 12.1699C50.3083 11.3745 51.5661 11.3256 52.3989 12.0588C52.8259 12.4347 53.0754 12.9547 53.1017 13.5229C53.1277 14.0913 52.9272 14.632 52.5365 15.0456L37.4446 31.0244C36.9611 31.536 36.9842 32.3427 37.496 32.8261C37.7423 33.0588 38.0568 33.174 38.3708 33.174C38.7091 33.174 39.047 33.0401 39.2974 32.7746L57.9947 12.9786C58.6058 12.3317 59.6139 12.2782 60.2901 12.8564C60.9784 13.4451 61.0676 14.491 60.4892 15.1878L43.1677 35.8833C42.7136 36.4212 42.7818 37.2252 43.3197 37.6792C43.8574 38.1333 44.6616 38.0651 45.1155 37.5273L60.9368 18.7806C61.5599 18.0422 62.6254 17.8472 63.469 18.3165C63.9766 18.5986 64.3284 19.0655 64.4589 19.6312C64.5897 20.1971 64.4784 20.7709 64.146 21.2469L47.3983 45.2361C46.9954 45.8132 47.1366 46.6078 47.7137 47.0107C47.9359 47.1658 48.1902 47.2403 48.442 47.2403C48.8444 47.2403 49.2403 47.0501 49.4881 46.6953L50.4605 45.3023C51.5557 46.8052 53.283 47.809 55.1894 47.929C55.3282 47.9376 55.4666 47.9421 55.6042 47.9421C57.227 47.9421 58.756 47.339 59.9472 46.2202C61.2216 45.0236 61.9524 43.335 61.9524 41.5875C61.9524 41.3632 61.9406 41.1379 61.9169 40.9146C65.5178 40.1467 68.0932 36.9886 68.0932 33.2659C68.0934 30.228 66.3766 27.5535 63.7552 26.2595ZM28.9928 4.06107C29.3554 3.60754 29.8744 3.33855 30.454 3.30371C31.0338 3.26888 31.5809 3.47381 31.995 3.88078L34.1273 5.97563C32.7347 6.49458 31.5633 7.46911 30.7916 8.71619L29.0293 6.63528C28.4048 5.89831 28.3894 4.81571 28.9928 4.06107ZM21.5283 28.0397L20.5738 26.6711C20.0737 25.9538 20.2165 24.9638 20.8992 24.4175C21.2571 24.131 21.7042 24.0065 22.159 24.0666C22.6129 24.1268 23.0122 24.3631 23.2829 24.7322L23.9519 25.6449L21.5283 28.0397ZM25.7848 23.8336L20.6143 16.7785C19.9587 15.8838 20.1196 14.6354 20.9808 13.9363C21.4226 13.5776 21.9779 13.418 22.5417 13.4869C23.1062 13.5555 23.6058 13.8432 23.9485 14.2971L28.8575 20.7972L25.7848 23.8336ZM30.6868 18.9899L26.2109 13.0634L25.9829 12.7616L22.8185 8.57158C22.2824 7.86146 22.3973 6.85822 23.0797 6.28795C23.7747 5.70697 24.8208 5.79279 25.4119 6.47929L29.8288 11.608C29.8117 11.8022 29.8016 11.9985 29.8016 12.1971C29.8016 14.2561 30.7468 16.1516 32.306 17.3899L30.6868 18.9899ZM47.7077 10.3932L46.9118 11.2119C46.6736 10.6095 46.2967 10.0661 45.7974 9.6202C44.139 8.14031 41.6018 8.20454 40.0206 9.76684L34.1409 15.5766C33.0341 14.8252 32.3505 13.5705 32.3505 12.1968C32.3505 9.94578 34.1796 8.11397 36.4294 8.10939H36.4434C37.2857 8.10939 38.0121 7.57752 38.251 6.78549C38.6308 5.52736 39.8147 4.64851 41.1302 4.64851C42.1931 4.64851 43.1564 5.19278 43.707 6.1046C43.9896 6.57258 44.4599 6.89391 44.9971 6.98618C45.5371 7.07862 46.0912 6.93146 46.5172 6.58141C47.0911 6.11038 47.8194 5.86942 48.563 5.90239C50.0682 5.96951 51.3255 7.19807 51.4252 8.69937C51.4322 8.80302 51.4325 8.90583 51.4293 9.00778C50.0899 8.89155 48.7144 9.35783 47.7077 10.3932ZM61.1309 38.4695C60.5563 38.5638 60.0544 38.8757 59.7174 39.3477C59.3847 39.8135 59.254 40.3802 59.3495 40.9438C59.3856 41.1554 59.4037 41.372 59.4037 41.5875C59.4037 42.6495 58.9771 43.6348 58.2027 44.3622C57.4289 45.0888 56.4171 45.4526 55.3496 45.3852C53.8947 45.2938 52.6142 44.3376 52.0708 42.9965L62.2716 28.3849C64.2337 29.1824 65.5445 31.0857 65.5445 33.2661C65.5445 35.8617 63.6884 38.0502 61.1309 38.4695Z" fill="#032E4A"/>
<path d="M79.3258 62.0661C79.3258 61.2915 79.1321 60.5235 78.7657 59.8446C78.4906 59.335 78.4182 58.7401 78.5618 58.169C78.6991 57.6234 78.7576 57.0589 78.7356 56.4913C78.6203 53.4994 76.1907 51.011 73.2045 50.826C71.5522 50.7239 69.9845 51.289 68.7843 52.4173C67.6004 53.53 66.9215 55.0996 66.9215 56.7236C66.9215 58.5301 67.7323 60.2134 69.1454 61.3417C69.6028 61.7068 69.9032 62.2175 69.9911 62.7781C70.0101 62.9002 70.0349 63.0251 70.0648 63.1504C70.5401 65.1295 72.2812 66.6095 74.2987 66.7494C74.4119 66.7572 74.5244 66.7611 74.6365 66.7611C75.8294 66.7611 76.954 66.3195 77.8332 65.4991C78.7819 64.6144 79.3258 63.3629 79.3258 62.0661ZM76.0943 63.6358C75.6547 64.046 75.079 64.2484 74.4749 64.207C73.5558 64.1432 72.7615 63.464 72.5435 62.5565C72.5299 62.4994 72.5186 62.4428 72.5096 62.3852C72.3226 61.192 71.6927 60.114 70.7359 59.3501C69.9318 58.7082 69.4706 57.7508 69.4706 56.7239C69.4706 55.7868 69.8468 54.9171 70.5301 54.2748C71.1598 53.6828 71.9697 53.3637 72.83 53.3637C72.9021 53.3637 72.9745 53.3659 73.0469 53.3704C74.7429 53.4755 76.123 54.8896 76.1886 56.5899C76.201 56.9148 76.1679 57.2369 76.0897 57.5472V57.5474C75.7901 58.7381 75.9441 59.984 76.5227 61.0557C76.6913 61.368 76.7767 61.708 76.7767 62.0662C76.7769 62.6676 76.5344 63.2251 76.0943 63.6358Z" fill="#032E4A"/>
</svg>
