<svg width="81" height="83" viewBox="0 0 81 83" fill="none" xmlns="http://www.w3.org/2000/svg">
<path d="M56.4531 6.15626H45.5781C45.5781 5.79574 45.4349 5.44997 45.18 5.19504C44.925 4.94011 44.5793 4.79689 44.2188 4.79689H37.2452C36.941 3.63327 36.2597 2.60331 35.3078 1.86822C34.3559 1.13313 33.1871 0.734375 31.9844 0.734375C30.7817 0.734375 29.6129 1.13313 28.661 1.86822C27.7091 2.60331 27.0277 3.63327 26.7236 4.79689H19.75C19.3895 4.79689 19.0437 4.94011 18.7888 5.19504C18.5338 5.44997 18.3906 5.79574 18.3906 6.15626H7.51562C5.71298 6.15626 3.98417 6.87236 2.70951 8.14702C1.43485 9.42168 0.71875 11.1505 0.71875 12.9531V75.4844C0.71875 77.287 1.43485 79.0158 2.70951 80.2905C3.98417 81.5652 5.71298 82.2813 7.51562 82.2813H56.4531C57.3457 82.2813 58.2295 82.1055 59.0542 81.7639C59.8788 81.4223 60.6281 80.9217 61.2592 80.2905C61.8904 79.6594 62.391 78.9101 62.7326 78.0854C63.0742 77.2608 63.25 76.377 63.25 75.4844V12.9531C63.25 12.0606 63.0742 11.1767 62.7326 10.3521C62.391 9.52745 61.8904 8.77817 61.2592 8.14702C60.6281 7.51587 59.8788 7.01522 59.0542 6.67365C58.2295 6.33207 57.3457 6.15626 56.4531 6.15626V6.15626ZM21.1094 7.51564H27.9062C28.2668 7.51564 28.6125 7.37242 28.8675 7.11749C29.1224 6.86255 29.2656 6.51679 29.2656 6.15626C29.2656 5.43521 29.5521 4.74368 30.0619 4.23382C30.5718 3.72395 31.2633 3.43751 31.9844 3.43751C32.7054 3.43751 33.397 3.72395 33.9068 4.23382C34.4167 4.74368 34.7031 5.43521 34.7031 6.15626C34.7031 6.51679 34.8463 6.86255 35.1013 7.11749C35.3562 7.37242 35.702 7.51564 36.0625 7.51564H42.8594V14.3125C42.8594 14.673 42.7162 15.0188 42.4612 15.2737C42.2063 15.5287 41.8605 15.6719 41.5 15.6719H22.4688C22.1082 15.6719 21.7625 15.5287 21.5075 15.2737C21.2526 15.0188 21.1094 14.673 21.1094 14.3125V7.51564ZM22.4688 18.3906H41.5C42.5806 18.3874 43.616 17.9567 44.3801 17.1926C45.1442 16.4285 45.5749 15.3931 45.5781 14.3125H55.0938V63.25H46.9375C46.2171 63.2522 45.5268 63.5393 45.0174 64.0487C44.508 64.5581 44.2209 65.2484 44.2188 65.9688V74.125H8.875V14.3125H18.3906C18.3939 15.3931 18.8245 16.4285 19.5886 17.1926C20.3527 17.9567 21.3882 18.3874 22.4688 18.3906ZM53.177 65.9688L46.9375 72.2083V65.9688H53.177ZM60.5312 75.4844C60.528 76.565 60.0973 77.6004 59.3332 78.3645C58.5691 79.1286 57.5337 79.5593 56.4531 79.5625H7.51562C6.43503 79.5593 5.39962 79.1286 4.63552 78.3645C3.87142 77.6004 3.44073 76.565 3.4375 75.4844V12.9531C3.44073 11.8725 3.87142 10.8371 4.63552 10.073C5.39962 9.30894 6.43503 8.87824 7.51562 8.87501H18.3906V11.5938H7.51562C7.1551 11.5938 6.80933 11.737 6.5544 11.9919C6.29947 12.2468 6.15625 12.5926 6.15625 12.9531V75.4844C6.15625 75.8449 6.29947 76.1907 6.5544 76.4456C6.80933 76.7005 7.1551 76.8438 7.51562 76.8438H45.5781C45.9385 76.8411 46.2841 76.6999 46.5433 76.4495L57.4183 65.5745C57.6687 65.3153 57.8098 64.9698 57.8125 64.6094V12.9531C57.8125 12.5926 57.6693 12.2468 57.4143 11.9919C57.1594 11.737 56.8137 11.5938 56.4531 11.5938H45.5781V8.87501H56.4531C57.5337 8.87824 58.5691 9.30894 59.3332 10.073C60.0973 10.8371 60.528 11.8725 60.5312 12.9531V75.4844Z" fill="#032E4A"/>
<path d="M25.1875 48.2969V49.6562C25.1875 50.0168 25.0443 50.3625 24.7893 50.6175C24.5344 50.8724 24.1887 51.0156 23.8281 51.0156H15.6719C15.3113 51.0156 14.9656 50.8724 14.7107 50.6175C14.4557 50.3625 14.3125 50.0168 14.3125 49.6562V41.5C14.3125 41.1395 14.4557 40.7937 14.7107 40.5388C14.9656 40.2838 15.3113 40.1406 15.6719 40.1406H22.4008C22.7613 40.1406 23.1071 40.2838 23.362 40.5388C23.6169 40.7937 23.7602 41.1395 23.7602 41.5C23.7602 41.8605 23.6169 42.2063 23.362 42.4612C23.1071 42.7162 22.7613 42.8594 22.4008 42.8594H17.0312V48.2969H22.4688C22.4688 47.9363 22.612 47.5906 22.8669 47.3357C23.1218 47.0807 23.4676 46.9375 23.8281 46.9375C24.1887 46.9375 24.5344 47.0807 24.7893 47.3357C25.0443 47.5906 25.1875 47.9363 25.1875 48.2969Z" fill="#032E4A"/>
<path d="M26.9452 39.1796L21.1094 45.0154L19.3517 43.2577C19.2263 43.1279 19.0763 43.0243 18.9105 42.9531C18.7446 42.8818 18.5663 42.8443 18.3858 42.8427C18.2053 42.8412 18.0263 42.8756 17.8592 42.9439C17.6922 43.0123 17.5404 43.1132 17.4127 43.2408C17.2851 43.3685 17.1842 43.5203 17.1158 43.6873C17.0475 43.8544 17.0131 44.0334 17.0146 44.2139C17.0162 44.3944 17.0537 44.5728 17.125 44.7386C17.1962 44.9044 17.2998 45.0545 17.4296 45.1798L20.1483 47.8986C20.4033 48.1534 20.749 48.2966 21.1094 48.2966C21.4699 48.2966 21.8156 48.1534 22.0705 47.8986L28.8674 41.1017C29.115 40.8453 29.252 40.502 29.2489 40.1455C29.2458 39.7891 29.1029 39.4482 28.8508 39.1961C28.5988 38.9441 28.2578 38.8011 27.9014 38.798C27.545 38.7949 27.2016 38.9319 26.9452 39.1796Z" fill="#032E4A"/>
<path d="M17.0312 60.5312V59.1719H22.3967C22.7572 59.1719 23.103 59.0287 23.3579 58.7737C23.6129 58.5188 23.7561 58.173 23.7561 57.8125C23.7561 57.452 23.6129 57.1062 23.3579 56.8513C23.103 56.5963 22.7572 56.4531 22.3967 56.4531H15.6719C15.3113 56.4531 14.9656 56.5963 14.7107 56.8513C14.4557 57.1062 14.3125 57.452 14.3125 57.8125V65.9688C14.3125 66.3293 14.4557 66.675 14.7107 66.93C14.9656 67.1849 15.3113 67.3281 15.6719 67.3281H23.8281C24.1887 67.3281 24.5344 67.1849 24.7893 66.93C25.0443 66.675 25.1875 66.3293 25.1875 65.9688V64.6094C25.1875 64.2488 25.0443 63.9031 24.7893 63.6482C24.5344 63.3932 24.1887 63.25 23.8281 63.25C23.4676 63.25 23.1218 63.3932 22.8669 63.6482C22.612 63.9031 22.4688 64.2488 22.4688 64.6094H17.0312V60.5312Z" fill="#032E4A"/>
<path d="M26.9452 55.4921L21.1094 61.3279L19.3517 59.5702C19.2263 59.4404 19.0763 59.3368 18.9105 59.2656C18.7446 59.1943 18.5663 59.1568 18.3858 59.1552C18.2053 59.1537 18.0263 59.1881 17.8592 59.2564C17.6922 59.3248 17.5404 59.4257 17.4127 59.5533C17.2851 59.681 17.1842 59.8328 17.1158 59.9998C17.0475 60.1669 17.0131 60.3459 17.0146 60.5264C17.0162 60.7069 17.0537 60.8853 17.125 61.0511C17.1962 61.2169 17.2998 61.367 17.4296 61.4923L20.1483 64.2111C20.4033 64.4659 20.749 64.6091 21.1094 64.6091C21.4699 64.6091 21.8156 64.4659 22.0705 64.2111L28.8674 57.4142C29.115 57.1578 29.252 56.8145 29.2489 56.458C29.2458 56.1016 29.1029 55.7607 28.8508 55.5086C28.5988 55.2566 28.2578 55.1136 27.9014 55.1105C27.545 55.1074 27.2016 55.2444 26.9452 55.4921V55.4921Z" fill="#032E4A"/>
<path d="M31.9844 37.4219C33.5975 37.4219 35.1745 36.9435 36.5157 36.0473C37.857 35.1511 38.9024 33.8772 39.5198 32.3869C40.1371 30.8965 40.2986 29.2566 39.9839 27.6744C39.6692 26.0923 38.8924 24.639 37.7517 23.4983C36.611 22.3576 35.1577 21.5808 33.5756 21.2661C31.9934 20.9514 30.3535 21.1129 28.8631 21.7302C27.3728 22.3476 26.0989 23.393 25.2027 24.7343C24.3065 26.0755 23.8281 27.6525 23.8281 29.2656C23.8303 31.4281 24.6903 33.5015 26.2194 35.0306C27.7485 36.5597 29.8219 37.4197 31.9844 37.4219ZM31.9844 23.8281C33.0598 23.8281 34.1111 24.147 35.0053 24.7445C35.8995 25.342 36.5964 26.1912 37.008 27.1848C37.4195 28.1784 37.5272 29.2717 37.3174 30.3264C37.1076 31.3812 36.5897 32.3501 35.8293 33.1105C35.0688 33.871 34.1 34.3888 33.0452 34.5986C31.9904 34.8085 30.8971 34.7008 29.9035 34.2892C28.91 33.8777 28.0607 33.1807 27.4633 32.2865C26.8658 31.3923 26.5469 30.3411 26.5469 29.2656C26.5469 27.8235 27.1198 26.4405 28.1395 25.4207C29.1592 24.401 30.5423 23.8281 31.9844 23.8281V23.8281Z" fill="#032E4A"/>
<path d="M30.625 33.3438H33.3438V30.625H36.0625V27.9062H33.3438V25.1875H30.625V27.9062H27.9062V30.625H30.625V33.3438Z" fill="#032E4A"/>
<path d="M30.625 42.8594C30.625 43.2199 30.7682 43.5657 31.0232 43.8206C31.2781 44.0755 31.6238 44.2188 31.9844 44.2188H48.2969C48.6574 44.2188 49.0032 44.0755 49.2581 43.8206C49.513 43.5657 49.6562 43.2199 49.6562 42.8594C49.6562 42.4988 49.513 42.1531 49.2581 41.8982C49.0032 41.6432 48.6574 41.5 48.2969 41.5H31.9844C31.6238 41.5 31.2781 41.6432 31.0232 41.8982C30.7682 42.1531 30.625 42.4988 30.625 42.8594Z" fill="#032E4A"/>
<path d="M48.2969 57.8125H31.9844C31.6238 57.8125 31.2781 57.9557 31.0232 58.2107C30.7682 58.4656 30.625 58.8113 30.625 59.1719C30.625 59.5324 30.7682 59.8782 31.0232 60.1331C31.2781 60.388 31.6238 60.5312 31.9844 60.5312H48.2969C48.6574 60.5312 49.0032 60.388 49.2581 60.1331C49.513 59.8782 49.6562 59.5324 49.6562 59.1719C49.6562 58.8113 49.513 58.4656 49.2581 58.2107C49.0032 57.9557 48.6574 57.8125 48.2969 57.8125Z" fill="#032E4A"/>
<path d="M40.1406 63.25H31.9844C31.6238 63.25 31.2781 63.3932 31.0232 63.6482C30.7682 63.9031 30.625 64.2488 30.625 64.6094C30.625 64.9699 30.7682 65.3157 31.0232 65.5706C31.2781 65.8255 31.6238 65.9688 31.9844 65.9688H40.1406C40.5012 65.9688 40.8469 65.8255 41.1018 65.5706C41.3568 65.3157 41.5 64.9699 41.5 64.6094C41.5 64.2488 41.3568 63.9031 41.1018 63.6482C40.8469 63.3932 40.5012 63.25 40.1406 63.25Z" fill="#032E4A"/>
<path d="M48.2969 46.9375H31.9844C31.6238 46.9375 31.2781 47.0807 31.0232 47.3357C30.7682 47.5906 30.625 47.9363 30.625 48.2969C30.625 48.6574 30.7682 49.0032 31.0232 49.2581C31.2781 49.513 31.6238 49.6562 31.9844 49.6562H48.2969C48.6574 49.6562 49.0032 49.513 49.2581 49.2581C49.513 49.0032 49.6562 48.6574 49.6562 48.2969C49.6562 47.9363 49.513 47.5906 49.2581 47.3357C49.0032 47.0807 48.6574 46.9375 48.2969 46.9375Z" fill="#032E4A"/>
<path d="M76.8438 11.5938H74.125C73.0444 11.597 72.009 12.0277 71.2449 12.7918C70.4808 13.5559 70.0501 14.5913 70.0469 15.6719V19.75C68.9663 19.7532 67.9309 20.1839 67.1668 20.948C66.4027 21.7121 65.972 22.7475 65.9688 23.8281V37.4219C65.9688 37.7824 66.112 38.1282 66.3669 38.3831C66.6218 38.638 66.9676 38.7812 67.3281 38.7812C67.6887 38.7812 68.0344 38.638 68.2893 38.3831C68.5443 38.1282 68.6875 37.7824 68.6875 37.4219V23.8281C68.6875 23.4676 68.8307 23.1218 69.0857 22.8669C69.3406 22.612 69.6863 22.4688 70.0469 22.4688V70.0469C70.0469 70.0605 70.0605 70.0741 70.0605 70.1013C70.0631 70.2442 70.086 70.3861 70.1284 70.5227L74.2202 81.3977C74.3185 81.6571 74.4934 81.8805 74.7216 82.0383C74.9498 82.1961 75.2205 82.2808 75.498 82.2812C75.7737 82.2805 76.0426 82.1955 76.2685 82.0376C76.4945 81.8796 76.6668 81.6563 76.7622 81.3977L80.8403 70.5227C80.8838 70.3817 80.9067 70.2352 80.9083 70.0877C80.9083 70.0741 80.9219 70.0605 80.9219 70.0469V15.6719C80.9186 14.5913 80.488 13.5559 79.7239 12.7918C78.9598 12.0277 77.9243 11.597 76.8438 11.5938V11.5938ZM75.4844 77.0477L73.3637 71.4062H77.605L75.4844 77.0477ZM78.2031 68.6875H72.7656V65.9688H78.2031V68.6875ZM78.2031 63.25H72.7656V60.5312H78.2031V63.25ZM78.2031 57.8125H72.7656V55.0938H78.2031V57.8125ZM78.2031 52.375H72.7656V22.4688H78.2031V52.375ZM78.2031 19.75H72.7656V15.6719C72.7656 15.3113 72.9088 14.9656 73.1638 14.7107C73.4187 14.4557 73.7645 14.3125 74.125 14.3125H76.8438C77.2043 14.3125 77.55 14.4557 77.805 14.7107C78.0599 14.9656 78.2031 15.3113 78.2031 15.6719V19.75Z" fill="#032E4A"/>
</svg>
