<svg width="72" height="79" viewBox="0 0 72 79" fill="none" xmlns="http://www.w3.org/2000/svg">
<path d="M71.4259 74.9548L67.8868 54.4946C67.5054 52.2901 65.9218 50.5193 63.7536 49.8734L54.2079 47.0292C54.0103 44.725 53.0536 42.5511 51.4614 40.8303C50.1878 39.454 48.5859 38.4519 46.8201 37.8989C47.1223 37.5677 47.4025 37.2377 47.6595 36.9149C49.9295 34.064 51.1448 30.9231 51.4542 28.7798H52.1906C54.1059 28.7798 55.6642 27.2411 55.6642 25.3496V23.5912C55.6642 22.3289 54.9451 21.1851 53.8637 20.5915V16.3632C53.8637 15.7242 53.3392 15.2063 52.6922 15.2063C52.0451 15.2063 51.5208 15.7241 51.5208 16.3632V21.11C51.0645 21.1882 50.5201 21.3234 49.9632 21.555C49.9062 21.5755 49.8507 21.5992 49.7982 21.6278C49.6725 21.6844 49.5465 21.7441 49.4211 21.8114V12.4885C49.4211 9.9128 47.2992 7.81745 44.6909 7.81745H41.4573C40.342 7.81745 39.2525 8.20119 38.389 8.8983L38.0717 9.15443C37.4889 9.62504 36.7533 9.88426 36.0003 9.88426C35.2473 9.88426 34.5115 9.62504 33.9287 9.15443L33.6115 8.8983C32.7481 8.20134 31.6586 7.81745 30.5433 7.81745H27.3093C24.7011 7.81745 22.5792 9.9128 22.5792 12.4885V21.8114C22.4537 21.7441 22.3278 21.6844 22.202 21.6278C22.1495 21.5992 22.0942 21.5755 22.0372 21.555C21.4803 21.3234 20.9358 21.1882 20.4797 21.11V9.10737C20.4797 5.36135 23.5659 2.31368 27.3593 2.31368H44.6407C48.4343 2.31368 51.5204 5.36135 51.5204 9.10737V10.9259C51.5204 11.5649 52.045 12.0828 52.6918 12.0828C53.3387 12.0828 53.8634 11.565 53.8634 10.9259V9.10737C53.8634 4.08563 49.7261 0 44.6407 0H27.3593C22.2739 0 18.1367 4.08563 18.1367 9.10737V20.5917C17.0553 21.1853 16.3362 22.3289 16.3362 23.5914V25.3497C16.3362 27.2413 17.8945 28.7799 19.8098 28.7799H20.5462C20.8554 30.9233 22.0709 34.0641 24.3409 36.9151C24.5976 37.2375 24.8776 37.5673 25.1795 37.8981C21.1201 39.1713 18.1598 42.7754 17.7925 47.0292L8.24653 49.8734C6.07825 50.5193 4.4945 52.2901 4.11325 54.4946L2.67606 62.8033C2.56716 63.4331 2.99591 64.0307 3.63356 64.1383C4.27106 64.2461 4.87653 63.8226 4.9856 63.1927L6.42278 54.884C6.65341 53.5503 7.61153 52.4791 8.92325 52.0885L17.7522 49.4579V51.7462C15.7284 52.1141 14.0064 53.4869 13.2972 55.3889C13.1089 55.8937 12.9918 56.4224 12.9493 56.9599L12.0961 67.7754C12.0317 68.59 12.3172 69.4013 12.8789 70.0008C13.4406 70.6004 14.2373 70.9445 15.0647 70.9445H16.5253C17.1723 70.9445 17.6968 70.4267 17.6968 69.7876C17.6968 69.1485 17.1723 68.6308 16.5253 68.6308H15.0647C14.8883 68.6308 14.7186 68.5577 14.5987 68.4296C14.479 68.3018 14.4183 68.129 14.432 67.9554L15.2853 57.1398C15.3111 56.8141 15.3818 56.4939 15.4959 56.1883C15.9893 54.8652 17.3218 53.9692 18.812 53.9589L19.005 53.9575C19.014 53.9573 19.0229 53.9573 19.0318 53.9573C20.4801 53.9573 21.7622 54.7683 22.3029 56.0291C22.4547 56.3825 22.5468 56.7563 22.5772 57.1398L23.4308 67.9556C23.4443 68.129 23.3836 68.3018 23.2639 68.4297C23.1442 68.5575 22.9743 68.6308 22.7979 68.6308H21.3373C20.6903 68.6308 20.1658 69.1486 20.1658 69.7876C20.1658 70.4265 20.6903 70.9445 21.3373 70.9445H22.7979C23.6253 70.9445 24.4222 70.6005 24.9837 70.0008C25.5456 69.401 25.8311 68.5899 25.7667 67.7755L24.9131 56.9599C24.8631 56.327 24.7108 55.71 24.4603 55.1263C23.6886 53.3276 22.0384 52.077 20.095 51.7387V48.7598L24.1222 47.5598C24.4886 48.3219 25.2147 49.9687 26.6529 53.5186C28.1025 57.1005 29.9042 61.6916 31.6322 66.1548C31.6445 66.1923 31.6587 66.2289 31.6747 66.2646C32.8278 69.2443 33.9464 72.1626 34.9031 74.6801C35.0747 75.1316 35.5117 75.4306 36 75.4306C36.4883 75.4306 36.9253 75.1316 37.0968 74.6801C38.0534 72.1626 39.172 69.2443 40.3253 66.2646C40.3414 66.2289 40.3554 66.1921 40.3678 66.1548C42.0945 61.6942 43.8953 57.106 45.3442 53.5253C46.7843 49.9707 47.5111 48.3225 47.8776 47.5598L51.9048 48.7598V55.5929C49.1145 56.1281 47.0009 58.5583 47.0009 61.468C47.0009 64.7686 49.7201 67.454 53.0626 67.454C56.4051 67.454 59.1243 64.7687 59.1243 61.468C59.1243 58.5679 57.0247 56.1435 54.2478 55.5978V49.458L63.0768 52.0886C64.3886 52.4793 65.3465 53.5504 65.5773 54.8842L69.1164 75.3444C69.1751 75.6837 69.0837 76.0154 68.8589 76.2785C68.6342 76.5414 68.3184 76.6865 67.9698 76.6865H4.03013C3.68153 76.6865 3.36591 76.5416 3.14106 76.2785C2.91638 76.0154 2.82481 75.6839 2.88356 75.3444L4.05153 68.5921C4.16044 67.9622 3.73169 67.3646 3.09403 67.2571C2.45653 67.1491 1.85106 67.5729 1.742 68.2026L0.574033 74.955C0.399815 75.9628 0.682784 76.9891 1.35028 77.7706C2.0181 78.5519 2.99481 79 4.03013 79H67.9698C69.0051 79 69.982 78.5519 70.6497 77.7704C71.3172 76.9889 71.6001 75.9627 71.4259 74.9548ZM51.5345 23.4669C52.1587 23.3132 52.6598 23.316 52.6654 23.3161C52.8673 23.3187 53.0636 23.2721 53.2379 23.1819C53.2901 23.3101 53.3209 23.4479 53.3209 23.5914V25.3497C53.3209 25.9654 52.8137 26.4662 52.1903 26.4662H51.5345V23.4669ZM20.4654 26.4662H19.8097C19.1862 26.4662 18.679 25.9654 18.679 25.3497V23.5914C18.679 23.4479 18.71 23.3101 18.762 23.182C18.9362 23.2723 19.1325 23.3189 19.3345 23.3161C19.3434 23.3177 19.8431 23.3149 20.4654 23.4675V26.4662ZM22.8084 27.7634V24.7241C23.1634 24.8291 23.5517 24.8148 23.9101 24.6671C24.525 24.4138 24.9222 23.8254 24.9222 23.168V12.4885C24.9222 11.1887 25.9931 10.1311 27.3093 10.1311H30.5429C31.1192 10.1311 31.6822 10.3294 32.1283 10.6895L32.4454 10.9457C33.4456 11.7533 34.7079 12.1978 36 12.1978C37.292 12.1978 38.5543 11.7531 39.5545 10.9457L39.8717 10.6895C40.3176 10.3294 40.8807 10.1311 41.457 10.1311H44.6906C46.0068 10.1311 47.0778 11.1887 47.0778 12.4885V23.1681C47.0778 23.8254 47.475 24.4139 48.0898 24.6673C48.2951 24.7518 48.5101 24.7929 48.7232 24.7929C48.8822 24.7929 49.0398 24.7699 49.1915 24.7251V27.7634C49.1915 29.4525 48.009 32.7325 45.8175 35.4849C45.0915 36.3966 44.1584 37.3761 43.0095 38.2321C42.9731 38.2562 42.9382 38.2823 42.905 38.3101C41.1251 39.6096 38.8365 40.6051 36 40.6051C33.1634 40.6051 30.8748 39.6096 29.0948 38.3099C29.0615 38.2823 29.0268 38.2562 28.9906 38.2323C27.8417 37.3761 26.9086 36.3966 26.1825 35.4849C23.9911 32.7327 22.8084 29.4525 22.8084 27.7634ZM43.675 46.4542L36 52.119L28.325 46.4542C29.0861 45.4989 29.5125 44.2727 29.5125 43.1784V41.3136C31.3173 42.2721 33.4709 42.9189 36 42.9189C38.529 42.9189 40.6828 42.2721 42.4875 41.3136V43.1784C42.4875 44.2727 42.9139 45.4989 43.675 46.4542ZM26.3698 45.1628C25.7442 44.9275 25.0506 44.889 24.3945 45.0647C24.3658 45.0714 24.3376 45.0789 24.3103 45.0869L20.2629 46.2929C20.9475 42.9691 23.6806 40.3235 27.1695 39.8111V43.1784C27.1695 43.9043 26.8414 44.6546 26.3698 45.1628ZM29.5493 54.4497C29.5472 54.4443 29.545 54.4389 29.5429 54.4336C29.4836 54.2853 29.425 54.1391 29.3668 53.9945C29.3564 53.9683 29.3459 53.9422 29.3354 53.9163C29.2786 53.7748 29.2222 53.6344 29.1665 53.4963C29.1626 53.4865 29.1587 53.477 29.1548 53.4671C28.9812 53.0362 28.8139 52.6228 28.6529 52.2267C28.6412 52.198 28.6295 52.1689 28.6178 52.1403C28.5715 52.0267 28.5261 51.9149 28.4809 51.8044C28.4643 51.7638 28.4479 51.7237 28.4315 51.6836C28.3878 51.5765 28.3443 51.47 28.3015 51.3659C28.2887 51.3347 28.2762 51.3045 28.2636 51.2735C28.1859 51.0843 28.11 50.8999 28.0359 50.7202C28.0159 50.6716 27.9954 50.622 27.9756 50.574C27.9465 50.504 27.9183 50.4358 27.8898 50.3671C27.8592 50.2931 27.8286 50.2196 27.7986 50.1474C27.7873 50.1204 27.7756 50.0919 27.7643 50.065C27.7553 50.0434 27.747 50.0235 27.7381 50.0021C27.6028 49.6774 27.4742 49.3715 27.3522 49.0837C27.3512 49.0814 27.3501 49.0791 27.3492 49.0767C27.2842 48.9235 27.2206 48.7739 27.1595 48.6313C27.1278 48.5574 27.0965 48.4847 27.0659 48.4134L33.6667 53.2852L30.9086 54.4423C30.9037 54.4443 30.8987 54.4463 30.8939 54.4484L29.7423 54.9315C29.677 54.7684 29.6131 54.6086 29.5493 54.4497ZM32.3447 61.5331C32.1133 60.9402 31.8801 60.3438 31.6465 59.7481C31.2812 58.8163 30.9323 57.9303 30.5984 57.0863L31.0356 56.9028L32.8218 58.9533L32.3447 61.5331ZM36.0226 70.9357C35.989 70.8669 35.949 70.8019 35.9028 70.7414C35.3734 69.3597 34.7015 67.6113 33.9579 65.6877L35.0517 59.7743H36.9483L38.042 65.6877C37.2628 67.703 36.5629 69.5252 36.0226 70.9357ZM37.3876 57.4608H34.6123L33.299 55.9533L36 54.8203L38.7009 55.9533L37.3876 57.4608ZM40.3534 59.7481C40.1198 60.3438 39.8867 60.9402 39.6553 61.5331L39.1781 58.9531L40.9643 56.9027L41.4015 57.0861C41.0676 57.9301 40.7187 58.8163 40.3534 59.7481ZM44.8406 48.6313C44.7826 48.7665 44.7223 48.9083 44.6609 49.053C44.6529 49.0718 44.6448 49.0908 44.6368 49.1098C44.5761 49.2533 44.5142 49.3998 44.4501 49.5524C44.4459 49.5625 44.4415 49.5731 44.4373 49.5833C44.382 49.7149 44.3253 49.8507 44.2676 49.9891C44.2568 50.015 44.2467 50.0389 44.2359 50.065C44.2231 50.096 44.2093 50.1289 44.1964 50.1602C44.1707 50.2219 44.1447 50.2849 44.1184 50.3478C44.0862 50.4255 44.0542 50.5028 44.0212 50.5822C44.0107 50.6075 44 50.6339 43.9893 50.6594C43.9078 50.8567 43.824 51.0601 43.7384 51.269C43.725 51.3017 43.7117 51.3338 43.6982 51.367C43.6559 51.4702 43.6128 51.5756 43.5695 51.6816C43.5526 51.7231 43.5356 51.7644 43.5186 51.8064C43.4739 51.9158 43.4287 52.0266 43.3831 52.1389C43.3703 52.1702 43.3573 52.2023 43.3445 52.2338C43.1856 52.6245 43.0208 53.032 42.8497 53.4566C42.844 53.4707 42.8384 53.4844 42.8328 53.4986C42.7775 53.6358 42.7215 53.7752 42.665 53.9158C42.6545 53.942 42.6439 53.9683 42.6333 53.9946C42.5748 54.14 42.5159 54.2869 42.4562 54.4361C42.4551 54.4389 42.454 54.4416 42.4529 54.4443C42.3886 54.605 42.3239 54.7668 42.2579 54.9319L41.1053 54.4483C41.1012 54.4466 41.0972 54.4449 41.0932 54.4432L38.3336 53.2855L44.9343 48.4137C44.9034 48.4847 44.8722 48.5572 44.8406 48.6313ZM47.6897 45.0871C47.6895 45.0871 47.6892 45.0869 47.689 45.0869C47.6881 45.0866 47.687 45.0865 47.6861 45.086C47.0064 44.8847 46.2814 44.918 45.6303 45.1628C45.1586 44.6546 44.8306 43.9043 44.8306 43.1784V39.8094C48.3414 40.3204 51.0662 42.9411 51.7418 46.2943L47.6897 45.0871ZM56.7814 61.468C56.7814 63.493 55.1131 65.1403 53.0626 65.1403C51.0122 65.1403 49.3439 63.493 49.3439 61.468C49.3439 59.443 51.0122 57.7958 53.0626 57.7958C55.1131 57.7958 56.7814 59.443 56.7814 61.468Z" fill="#032E4A"/>
</svg>
