<svg width="79" height="80" viewBox="0 0 79 80" fill="none" xmlns="http://www.w3.org/2000/svg">
<g clip-path="url(#clip0)">
<path d="M41.5314 5.03013H40.6534V4.14091C40.6534 3.49575 40.137 2.97278 39.4999 2.97278C38.8628 2.97278 38.3464 3.49575 38.3464 4.14091V5.03013H37.4684C36.8313 5.03013 36.3149 5.5531 36.3149 6.19825C36.3149 6.84341 36.8313 7.36638 37.4684 7.36638H38.3464V8.25544C38.3464 8.9006 38.8628 9.42357 39.4999 9.42357C40.137 9.42357 40.6534 8.9006 40.6534 8.25544V7.36638H41.5314C42.1685 7.36638 42.6849 6.84341 42.6849 6.19825C42.6849 5.5531 42.1685 5.03013 41.5314 5.03013Z" fill="#032E4A"/>
<path d="M73.2833 76.0045L69.912 56.0176C69.5463 53.8497 68.0276 52.1085 65.9484 51.4733L50.8148 46.8494C50.1473 46.6455 49.4547 46.7343 48.8795 47.0522C48.3416 46.5672 47.9494 45.7379 47.9494 44.9699V41.1443C47.9884 41.1102 48.0276 41.0761 48.0665 41.0422C48.1246 40.9914 48.1865 40.9366 48.2501 40.8796H49.7324C51.79 40.8796 53.6986 40.043 55.1067 38.5239C56.5149 37.0049 57.2189 35.0231 57.0888 32.9438L56.6781 26.3717V26.2733C56.6781 26.0939 56.6647 25.9178 56.6389 25.7455L56.1788 18.3851C56.1385 17.7412 55.5889 17.2526 54.9548 17.293C54.3189 17.3337 53.8361 17.8887 53.8764 18.5326L54.1486 22.8875C53.8477 22.8012 53.5306 22.7539 53.2027 22.7539H53.1384C52.7994 22.233 52.237 21.8734 51.5755 21.8131C39.6011 20.7219 36.1536 17.1006 33.6361 14.4562C33.1129 13.9067 32.2547 13.8647 31.0856 14.3314C29.0534 15.1425 25.5939 17.7637 25.5183 22.4442C25.5183 22.4506 25.5181 22.457 25.5181 22.4634V22.7652C25.2888 22.7838 25.066 22.8256 24.8512 22.8872L25.207 17.1953C25.3964 14.1673 26.9017 11.4681 29.303 9.75138L29.3903 9.98248C29.9694 11.5148 31.4471 12.5444 33.0674 12.5444H46.2336C47.8537 12.5444 49.3314 11.5148 49.9106 9.98248L49.9308 9.92904C51.1773 10.8801 52.178 12.1137 52.8594 13.5555C53.0577 13.9747 53.4704 14.2195 53.9008 14.2195C54.0677 14.2195 54.2373 14.1825 54.3979 14.1047C54.9727 13.8262 55.2155 13.1286 54.9404 12.5467C54.0018 10.5609 52.5747 8.89388 50.7826 7.67528L51.5769 5.57325C51.8788 4.77418 51.8185 3.8859 51.4116 3.13621C51.0048 2.38668 50.2967 1.85902 49.4689 1.68887L42.8483 0.3273C40.7262 -0.109263 38.5746 -0.109263 36.4525 0.3273L29.8321 1.68855C29.0043 1.85871 28.2961 2.38621 27.8892 3.13606C27.4823 3.8859 27.422 4.77403 27.7241 5.57309L28.4576 7.51388C25.2052 9.60919 23.1512 13.102 22.9046 17.0475L22.3579 25.7919C22.3365 25.9495 22.3217 26.1092 22.3217 26.2728V26.3713L21.9109 32.9433C21.7809 35.0225 22.4849 37.0044 23.893 38.5235C25.3012 40.0425 27.2098 40.8791 29.2674 40.8791H30.7497C30.8133 40.936 30.8751 40.991 30.9333 41.0418C30.9722 41.0757 31.0114 41.1097 31.0504 41.1438V44.9694C31.0504 45.7374 30.6582 46.5669 30.1203 47.0518C29.5451 46.7338 28.8523 46.6447 28.1851 46.8488L13.0513 51.4729C10.9723 52.108 9.4536 53.8494 9.08776 56.0171L7.82144 63.5251C7.71421 64.161 8.13636 64.7646 8.76435 64.8732C9.39172 64.9827 9.98839 64.5545 10.0956 63.9184L11.3619 56.4104C11.5794 55.1221 12.482 54.0871 13.7176 53.7096L28.8515 49.0854C28.9506 49.0552 29.056 49.1011 29.1027 49.1943C29.1027 49.1944 29.103 49.1947 29.103 49.1949L36.3286 63.6509C36.5187 64.0313 36.7682 64.3668 37.0623 64.648C37.7094 65.2671 38.5732 65.6245 39.4996 65.6245C40.0891 65.6245 40.6533 65.4798 41.1524 65.2149C41.7941 64.8745 42.3283 64.3355 42.6707 63.6507L49.8966 49.1943C49.9432 49.1008 50.0487 49.0544 50.1479 49.0854L65.2817 53.7094C66.5175 54.0869 67.4201 55.1219 67.6374 56.4102L71.0086 76.397C71.0816 76.829 70.8915 77.1346 70.7716 77.2784C70.6517 77.4221 70.3863 77.6634 69.9535 77.6634H62.8074L60.9221 66.4865C60.8148 65.8505 60.2192 65.4226 59.5908 65.5316C58.9628 65.6402 58.5406 66.2438 58.6479 66.8798L60.4669 77.6632H18.5328L20.3518 66.8798C20.459 66.2438 20.0368 65.6402 19.4089 65.5316C18.7812 65.4229 18.1848 65.8504 18.0776 66.4865L16.1922 77.6634H9.04594C8.61314 77.6634 8.3476 77.4221 8.22786 77.2784C8.10813 77.1346 7.91803 76.8288 7.99086 76.397L9.16445 69.4393C9.27168 68.8034 8.84952 68.1998 8.22154 68.0912C7.59385 67.9821 6.9975 68.4101 6.89026 69.046L5.71667 76.0037C5.5488 76.9993 5.82129 78.0132 6.4644 78.7851C7.10751 79.557 8.04841 79.9998 9.04594 79.9998C9.04718 79.9998 9.04594 79.9998 9.04718 79.9998H69.9541C70.9515 79.9998 71.8924 79.557 72.5357 78.7851C73.1786 78.0139 73.4513 76.9999 73.2833 76.0045ZM29.9114 4.26168C29.9582 4.17559 30.0697 4.02418 30.2914 3.97856L36.9119 2.61715C37.8207 2.43043 38.7355 2.33699 39.6506 2.33699C40.5655 2.33699 41.4808 2.43043 42.3893 2.61715L49.0098 3.97856C49.0098 3.97856 49.0098 3.97856 49.01 3.97871C49.2316 4.02418 49.3431 4.17559 49.3899 4.26168C49.4366 4.34793 49.5031 4.52434 49.4223 4.7384L47.756 9.14747C47.5162 9.78185 46.9045 10.2081 46.2337 10.2081H33.0676C32.3968 10.2081 31.785 9.78185 31.5453 9.14747L29.879 4.7384C29.7981 4.5245 29.8646 4.34793 29.9114 4.26168ZM54.7864 33.0914C54.8756 34.52 54.392 35.8813 53.4246 36.9249C52.6391 37.7724 51.6267 38.3107 50.517 38.483C51.7853 36.893 53.0307 34.7921 53.3822 32.3935C53.8605 32.3688 54.3124 32.2436 54.7208 32.0417L54.7864 33.0914ZM25.5753 36.9249C24.6079 35.8813 24.1243 34.5199 24.2135 33.0914L24.2791 32.0419C24.6875 32.2438 25.1395 32.3688 25.6178 32.3936C25.9691 34.7921 27.2146 36.893 28.4829 38.4832C27.3732 38.3107 26.3609 37.7724 25.5753 36.9249ZM40.7573 62.3066L40.6125 62.5962C40.592 62.6373 40.5679 62.6754 40.544 62.7132C40.5363 62.7252 40.5301 62.7387 40.5223 62.7504C40.5078 62.7718 40.4906 62.7902 40.475 62.8105C40.4197 62.8823 40.3595 62.9491 40.2917 63.0059C40.2775 63.0177 40.2615 63.0273 40.2468 63.0385C40.0372 63.1982 39.7802 63.2887 39.4999 63.2887C39.02 63.2887 38.604 63.0298 38.3873 62.5963L33.5966 53.0115H45.4035L40.7573 62.3066ZM46.5712 50.6751H32.4288L31.5377 48.8922C32.6247 47.9715 33.3578 46.4682 33.3578 44.9697V42.9541C34.8679 43.9375 36.7576 44.7004 39.4872 44.7313C39.4916 44.7313 39.4957 44.7313 39.5 44.7313C39.5044 44.7313 39.5085 44.7313 39.5129 44.7313C42.2425 44.7004 44.1322 43.9375 45.6423 42.9543V44.9699C45.6423 46.4685 46.3752 47.9716 47.4624 48.8924L46.5712 50.6751ZM46.5611 39.2718C44.428 41.1321 42.7833 42.3547 39.5 42.3949C36.2169 42.3547 34.5723 41.1319 32.4389 39.2718C29.607 36.8025 27.8835 33.7869 27.8287 31.2049C27.8153 30.5697 27.3029 30.0617 26.6755 30.0617H25.7974C25.1532 30.0617 24.6292 29.5311 24.6292 28.8788V26.2733C24.6292 26.2188 24.6341 26.1656 24.6412 26.113C24.6445 26.0952 24.6469 26.0772 24.6494 26.0592C24.7492 25.5089 25.2255 25.0903 25.7975 25.0903H26.6721C27.3092 25.0903 27.8256 24.5673 27.8256 23.9222V22.4736C27.8947 18.5197 31.218 16.672 32.2705 16.3853C35.6534 19.88 39.8111 23.058 51.1919 24.1239C51.2862 24.6728 51.7591 25.0903 52.3283 25.0903H53.2029C53.7747 25.0903 54.251 25.5089 54.351 26.0592C54.3535 26.0774 54.3559 26.0953 54.3592 26.113C54.3663 26.1655 54.3712 26.2188 54.3712 26.2733V28.8788C54.3712 29.531 53.8472 30.0617 53.203 30.0617H52.3249C51.6974 30.0617 51.1851 30.5695 51.1717 31.2049C51.1166 33.7867 49.3931 36.8024 46.5611 39.2718Z" fill="#032E4A"/>
</g>
<defs>
<clipPath id="clip0">
<rect width="79" height="80" fill="white"/>
</clipPath>
</defs>
</svg>
