<svg width="81" height="81" viewBox="0 0 81 81" fill="none" xmlns="http://www.w3.org/2000/svg">
<g clip-path="url(#clip0)">
<path d="M18.4875 53.3958H21.0922V61.2098H18.4875V53.3958Z" fill="#032E4A"/>
<path d="M80.8132 25.3758L76.9062 18.8641C76.6716 18.4724 76.2474 18.2327 75.7902 18.2327H68.8944L65.6837 9.24162L67.6194 5.85542C67.8484 5.45416 67.8484 4.96324 67.6194 4.56326L65.3868 0.656255C65.154 0.249911 64.7229 0 64.2555 0H59.7895C59.3221 0 58.891 0.249911 58.6589 0.656255L56.4269 4.56326C56.1979 4.96451 56.1979 5.45543 56.4269 5.85542L56.9311 6.73806L50.3044 14.3111L49.9438 13.6796C49.7123 13.2733 49.2812 13.0233 48.8132 13.0233H44.3478C43.8804 13.0233 43.4493 13.2733 43.2172 13.6796L43.1835 13.7381L35.9761 6.53139L36.3615 5.85542C36.5911 5.45416 36.5911 4.96324 36.3615 4.56326L34.1295 0.656255C33.898 0.249911 33.4669 0 32.9995 0H28.5335C28.0661 0 27.635 0.249911 27.4029 0.656255L25.4341 4.10223L17.788 6.28656L14.3954 0.631454C14.1595 0.239736 13.7353 0 13.2781 0H5.46412C5.0069 0 4.58212 0.239736 4.3481 0.631454L0.441099 7.14313C0.193096 7.55583 0.193096 8.07028 0.441099 8.48362L4.3481 14.9953C4.58212 15.3883 5.0069 15.628 5.46412 15.628H12.7389L32.1499 35.039L31.6971 35.7945C31.4491 36.2072 31.4491 36.7216 31.6971 37.135L32.857 39.07H17.1851C15.0307 39.07 13.2781 40.8232 13.2781 42.977V71.6284C13.2781 73.7822 15.0307 75.5354 17.1851 75.5354H34.3495L35.4426 80.9997L37.9964 80.4885L36.8645 74.8321L38.6266 73.6576L39.3897 75.9468L41.8602 75.1227L39.3248 67.5103V50.791C39.3248 50.0725 39.9092 49.4887 40.6272 49.4887C41.3445 49.4887 41.9295 50.0725 41.9295 50.791V65.1167C41.9295 65.6897 42.3059 66.1965 42.8541 66.3631C43.4022 66.531 43.9962 66.3173 44.3154 65.8398L46.5328 62.5121H47.7442L49.9622 65.8398C50.2045 66.2016 50.6109 66.4191 51.0458 66.4191H52.9535L55.1716 69.7468C55.4139 70.1086 55.8202 70.3261 56.2552 70.3261H58.1629L60.1622 73.3256V80.7447H62.7668V75.5354H64.0692C66.223 75.5354 67.9762 73.7822 67.9762 71.6284V42.977C67.9762 40.8232 66.223 39.07 64.0692 39.07H48.3966L49.5572 37.1362C49.8045 36.7235 49.8045 36.2091 49.5572 35.7958L48.1359 33.427L64.9582 30.0631L66.8583 33.2305C67.0942 33.621 67.519 33.8607 67.9762 33.8607H75.7902C76.2474 33.8607 76.6716 33.621 76.9062 33.2292L80.8132 26.7176C81.0606 26.3049 81.0606 25.7885 80.8132 25.3758ZM60.545 2.60467H63.4988L64.9874 5.20934L63.4988 7.81401H60.545L59.0563 5.20934L60.545 2.60467ZM45.1046 15.628H48.0583L49.5464 18.2327L48.0583 20.8374H45.1046L43.6159 18.2327L45.1046 15.628ZM29.289 2.60467H32.2427L33.7314 5.20934L32.2427 7.81401H29.289L27.8003 5.20934L29.289 2.60467ZM28.5335 10.4187H32.9995C33.4669 10.4187 33.898 10.1688 34.1295 9.76242L34.6363 8.87533L41.8436 16.0827L41.4672 16.7415L16.8411 10.9172L18.0366 8.92493L25.6764 6.74187L27.4016 9.76242C27.635 10.1688 28.0661 10.4187 28.5335 10.4187ZM3.07566 7.81401L6.20113 2.60467H12.5392L15.6653 7.81401L12.5392 13.0233H6.20113L3.07566 7.81401ZM14.9175 14.1241L15.4345 13.2618L41.265 19.3697L42.8789 22.1944L39.8049 28.6514H36.7201C36.2629 28.6514 35.8381 28.8911 35.6041 29.2828L33.5317 32.7371L14.9175 14.1241ZM37.4572 31.256H43.7952L46.9213 36.4654L43.7952 41.6747H37.4572L34.3317 36.4654L37.4572 31.256ZM15.8828 71.6284V42.977C15.8828 42.2585 16.4672 41.6747 17.1851 41.6747H23.6968V72.9307H17.1851C16.4672 72.9307 15.8828 72.347 15.8828 71.6284ZM65.3715 42.977V71.6284C65.3715 72.347 64.7865 72.9307 64.0692 72.9307H62.7668C62.7668 72.6745 62.6899 72.4214 62.5481 72.2077L60.1622 68.6288V41.6747H64.0692C64.7865 41.6747 65.3715 42.2585 65.3715 42.977ZM57.5575 41.6747V67.7214H56.9515L54.7341 64.3937C54.4918 64.0319 54.0855 63.8144 53.6505 63.8144H51.7421L49.5247 60.4867C49.2825 60.1249 48.8761 59.9074 48.4412 59.9074H45.8365C45.4015 59.9074 44.9952 60.1249 44.7529 60.4867L44.5342 60.8148V50.791C44.5342 48.6372 42.781 46.884 40.6272 46.884C38.4727 46.884 36.7201 48.6372 36.7201 50.791V67.7214C36.7201 67.8607 36.7418 67.9999 36.7863 68.1328L37.7738 71.0955L35.0229 72.9307H26.3015V41.6747H34.4201L35.6041 43.6479C35.8381 44.0384 36.2629 44.2794 36.7201 44.2794H44.5342C44.9914 44.2794 45.4155 44.0384 45.6502 43.6479L46.8336 41.6747H57.5575ZM46.714 31.0557L45.6514 29.2841C45.4155 28.8911 44.9914 28.6514 44.5342 28.6514H42.69L45.1707 23.442H48.8132C49.2812 23.442 49.7123 23.1921 49.9438 22.7858L52.1758 18.8788C52.4054 18.4775 52.4054 17.9866 52.1758 17.5866L51.6722 16.704L58.2983 9.13097L58.6589 9.76242C58.891 10.1688 59.3221 10.4187 59.7895 10.4187H63.3372L66.5422 19.3932L62.9513 25.3758C62.7039 25.7885 62.7039 26.303 62.9513 26.7163L63.535 27.6892L46.714 31.0557ZM75.0532 31.256H68.7145L65.589 26.0467L68.7145 20.8374H75.0532L78.1786 26.0467L75.0532 31.256Z" fill="#032E4A"/>
</g>
<defs>
<clipPath id="clip0">
<rect width="81" height="81" fill="white"/>
</clipPath>
</defs>
</svg>
